<svg xmlns="http://www.w3.org/2000/svg" xmlns:xlink="http://www.w3.org/1999/xlink" viewBox="0 0 332.49 350.53"><defs><style>.cls-1,.cls-2,.cls-3,.cls-5,.cls-6{fill:none;}.cls-2,.cls-3,.cls-5,.cls-6{stroke:#4cc108;stroke-miterlimit:10;}.cls-2,.cls-3{stroke-width:1.25px;}.cls-3,.cls-6{stroke-dasharray:5.28 5.28;}.cls-4{opacity:0.45;}.cls-7,.cls-8{fill:#4bd60b;}.cls-8{fill-rule:evenodd;}.cls-9{clip-path:url(#clip-path);}.cls-10{fill:#00749a;}.cls-11{fill:#464342;}</style><clipPath id="clip-path"><rect class="cls-1" x="11.94" y="206.66" width="31.36" height="31.36"/></clipPath></defs><title>TechnoxagonsV3</title><g id="Layer_2" data-name="Layer 2"><g id="Artboard2"><g id="Layer_20" data-name="Layer 20"><polyline class="cls-2" points="196.27 253.27 193.94 254.61 191.62 253.27"/><line class="cls-3" x1="187.05" y1="250.63" x2="171.06" y2="241.4"/><polyline class="cls-2" points="168.77 240.08 166.45 238.74 166.45 236.05"/><line class="cls-3" x1="166.45" y1="230.77" x2="166.45" y2="212.31"/><polyline class="cls-2" points="166.45 209.67 166.45 206.99 168.77 205.64"/><line class="cls-3" x1="173.34" y1="203" x2="189.33" y2="193.77"/><polyline class="cls-2" points="191.62 192.45 193.94 191.11 196.27 192.45"/><line class="cls-3" x1="200.84" y1="195.09" x2="216.83" y2="204.32"/><polyline class="cls-2" points="219.12 205.64 221.44 206.99 221.44 209.67"/><line class="cls-3" x1="221.44" y1="214.95" x2="221.44" y2="233.41"/><polyline class="cls-2" points="221.44 236.05 221.44 238.74 219.12 240.08"/><line class="cls-3" x1="214.55" y1="242.72" x2="198.56" y2="251.95"/><g class="cls-4"><polyline class="cls-5" points="251.54 253.27 249.22 254.61 246.89 253.27"/><line class="cls-6" x1="242.32" y1="250.63" x2="226.33" y2="241.4"/><polyline class="cls-5" points="224.05 240.08 221.72 238.74 221.72 236.05"/><line class="cls-6" x1="221.72" y1="230.77" x2="221.72" y2="212.31"/><polyline class="cls-5" points="221.72 209.67 221.72 206.99 224.05 205.64"/><line class="cls-6" x1="228.61" y1="203" x2="244.61" y2="193.77"/><polyline class="cls-5" points="246.89 192.45 249.22 191.11 251.54 192.45"/><line class="cls-6" x1="256.11" y1="195.09" x2="272.11" y2="204.32"/><polyline class="cls-5" points="274.39 205.64 276.72 206.99 276.72 209.67"/><line class="cls-6" x1="276.72" y1="214.95" x2="276.72" y2="233.41"/><polyline class="cls-5" points="276.72 236.05 276.72 238.74 274.39 240.08"/><line class="cls-6" x1="269.82" y1="242.72" x2="253.83" y2="251.95"/></g><g class="cls-4"><polyline class="cls-5" points="168.63 300.87 166.31 302.21 163.98 300.87"/><line class="cls-6" x1="159.41" y1="298.23" x2="143.42" y2="289"/><polyline class="cls-5" points="141.14 287.68 138.81 286.33 138.81 283.65"/><line class="cls-6" x1="138.81" y1="278.37" x2="138.81" y2="259.91"/><polyline class="cls-5" points="138.81 257.27 138.81 254.58 141.14 253.24"/><line class="cls-6" x1="145.7" y1="250.6" x2="161.7" y2="241.37"/><polyline class="cls-5" points="163.98 240.05 166.31 238.71 168.63 240.05"/><line class="cls-6" x1="173.2" y1="242.69" x2="189.2" y2="251.92"/><polyline class="cls-5" points="191.48 253.24 193.81 254.58 193.81 257.27"/><line class="cls-6" x1="193.81" y1="262.54" x2="193.81" y2="281.01"/><polyline class="cls-5" points="193.81 283.65 193.81 286.33 191.48 287.68"/><line class="cls-6" x1="186.91" y1="290.32" x2="170.92" y2="299.55"/></g><polyline class="cls-2" points="223.91 300.87 221.58 302.21 219.25 300.87"/><line class="cls-3" x1="214.69" y1="298.23" x2="198.69" y2="289"/><polyline class="cls-2" points="196.41 287.68 194.08 286.33 194.08 283.65"/><line class="cls-3" x1="194.08" y1="278.37" x2="194.08" y2="259.91"/><polyline class="cls-2" points="194.08 257.27 194.08 254.58 196.41 253.24"/><line class="cls-3" x1="200.98" y1="250.6" x2="216.97" y2="241.37"/><polyline class="cls-2" points="219.25 240.05 221.58 238.71 223.91 240.05"/><line class="cls-3" x1="228.48" y1="242.69" x2="244.47" y2="251.92"/><polyline class="cls-2" points="246.75 253.24 249.08 254.58 249.08 257.27"/><line class="cls-3" x1="249.08" y1="262.54" x2="249.08" y2="281.01"/><polyline class="cls-2" points="249.08 283.65 249.08 286.33 246.75 287.68"/><line class="cls-3" x1="242.18" y1="290.32" x2="226.19" y2="299.55"/><polyline class="cls-2" points="279.18 300.87 276.86 302.21 274.53 300.87"/><line class="cls-3" x1="269.96" y1="298.23" x2="253.97" y2="289"/><polyline class="cls-2" points="251.68 287.68 249.36 286.33 249.36 283.65"/><line class="cls-3" x1="249.36" y1="278.37" x2="249.36" y2="259.91"/><polyline class="cls-2" points="249.36 257.27 249.36 254.58 251.68 253.24"/><line class="cls-3" x1="256.25" y1="250.6" x2="272.24" y2="241.37"/><polyline class="cls-2" points="274.53 240.05 276.86 238.71 279.18 240.05"/><line class="cls-3" x1="283.75" y1="242.69" x2="299.74" y2="251.92"/><polyline class="cls-2" points="302.03 253.24 304.35 254.58 304.35 257.27"/><line class="cls-3" x1="304.35" y1="262.54" x2="304.35" y2="281.01"/><polyline class="cls-2" points="304.35 283.65 304.35 286.33 302.03 287.68"/><line class="cls-3" x1="297.46" y1="290.32" x2="281.47" y2="299.55"/><polyline class="cls-2" points="196.27 348.46 193.94 349.81 191.62 348.46"/><line class="cls-3" x1="187.05" y1="345.83" x2="171.06" y2="336.59"/><polyline class="cls-2" points="168.77 335.27 166.45 333.93 166.45 331.24"/><line class="cls-3" x1="166.45" y1="325.97" x2="166.45" y2="307.5"/><polyline class="cls-2" points="166.45 304.87 166.45 302.18 168.77 300.83"/><line class="cls-3" x1="173.34" y1="298.2" x2="189.33" y2="288.96"/><polyline class="cls-2" points="191.62 287.64 193.94 286.3 196.27 287.64"/><line class="cls-3" x1="200.84" y1="290.28" x2="216.83" y2="299.52"/><polyline class="cls-2" points="219.12 300.83 221.44 302.18 221.44 304.87"/><line class="cls-3" x1="221.44" y1="310.14" x2="221.44" y2="328.61"/><polyline class="cls-2" points="221.44 331.24 221.44 333.93 219.12 335.27"/><line class="cls-3" x1="214.55" y1="337.91" x2="198.56" y2="347.14"/><g class="cls-4"><polyline class="cls-5" points="251.54 348.46 249.22 349.81 246.89 348.46"/><line class="cls-6" x1="242.32" y1="345.83" x2="226.33" y2="336.59"/><polyline class="cls-5" points="224.05 335.27 221.72 333.93 221.72 331.24"/><line class="cls-6" x1="221.72" y1="325.97" x2="221.72" y2="307.5"/><polyline class="cls-5" points="221.72 304.87 221.72 302.18 224.05 300.83"/><line class="cls-6" x1="228.61" y1="298.2" x2="244.61" y2="288.96"/><polyline class="cls-5" points="246.89 287.64 249.22 286.3 251.54 287.64"/><line class="cls-6" x1="256.11" y1="290.28" x2="272.11" y2="299.52"/><polyline class="cls-5" points="274.39 300.83 276.72 302.18 276.72 304.87"/><line class="cls-6" x1="276.72" y1="310.14" x2="276.72" y2="328.61"/><polyline class="cls-5" points="276.72 331.24 276.72 333.93 274.39 335.27"/><line class="cls-6" x1="269.82" y1="337.91" x2="253.83" y2="347.14"/></g></g><g id="Layer_21" data-name="Layer 21"><g class="cls-4"><polyline class="cls-5" points="58.09 205.67 55.76 207.02 53.43 205.67"/><line class="cls-6" x1="48.86" y1="203.04" x2="32.87" y2="193.8"/><polyline class="cls-5" points="30.59 192.48 28.26 191.14 28.26 188.45"/><line class="cls-6" x1="28.26" y1="183.18" x2="28.26" y2="164.71"/><polyline class="cls-5" points="28.26 162.07 28.26 159.39 30.59 158.04"/><line class="cls-6" x1="35.16" y1="155.41" x2="51.15" y2="146.17"/><polyline class="cls-5" points="53.43 144.85 55.76 143.51 58.09 144.85"/><line class="cls-6" x1="62.66" y1="147.49" x2="78.65" y2="156.73"/><polyline class="cls-5" points="80.93 158.04 83.26 159.39 83.26 162.07"/><line class="cls-6" x1="83.26" y1="167.35" x2="83.26" y2="185.82"/><polyline class="cls-5" points="83.26 188.45 83.26 191.14 80.93 192.48"/><line class="cls-6" x1="76.36" y1="195.12" x2="60.37" y2="204.35"/></g><polyline class="cls-2" points="113.36 205.67 111.03 207.02 108.71 205.67"/><line class="cls-3" x1="104.14" y1="203.04" x2="88.15" y2="193.8"/><polyline class="cls-2" points="85.86 192.48 83.53 191.14 83.53 188.45"/><line class="cls-3" x1="83.54" y1="183.18" x2="83.54" y2="164.71"/><polyline class="cls-2" points="83.53 162.07 83.53 159.39 85.86 158.04"/><line class="cls-3" x1="90.43" y1="155.41" x2="106.42" y2="146.17"/><polyline class="cls-2" points="108.71 144.85 111.03 143.51 113.36 144.85"/><line class="cls-3" x1="117.93" y1="147.49" x2="133.92" y2="156.73"/><polyline class="cls-2" points="136.21 158.04 138.53 159.39 138.53 162.07"/><line class="cls-3" x1="138.53" y1="167.35" x2="138.53" y2="185.82"/><polyline class="cls-2" points="138.53 188.45 138.53 191.14 136.21 192.48"/><line class="cls-3" x1="131.64" y1="195.12" x2="115.65" y2="204.35"/><polyline class="cls-2" points="30.45 253.27 28.12 254.61 25.8 253.27"/><line class="cls-3" x1="21.23" y1="250.63" x2="5.24" y2="241.4"/><polyline class="cls-2" points="2.95 240.08 0.63 238.74 0.63 236.05"/><line class="cls-3" x1="0.63" y1="230.77" x2="0.63" y2="212.31"/><polyline class="cls-2" points="0.63 209.67 0.63 206.99 2.95 205.64"/><line class="cls-3" x1="7.52" y1="203" x2="23.51" y2="193.77"/><polyline class="cls-2" points="25.8 192.45 28.12 191.11 30.45 192.45"/><line class="cls-3" x1="35.02" y1="195.09" x2="51.01" y2="204.32"/><polyline class="cls-2" points="53.3 205.64 55.62 206.99 55.62 209.67"/><line class="cls-3" x1="55.62" y1="214.95" x2="55.62" y2="233.41"/><polyline class="cls-2" points="55.62 236.05 55.62 238.74 53.3 240.08"/><line class="cls-3" x1="48.73" y1="242.72" x2="32.74" y2="251.95"/><polyline class="cls-2" points="85.72 253.27 83.4 254.61 81.07 253.27"/><line class="cls-3" x1="76.5" y1="250.63" x2="60.51" y2="241.4"/><polyline class="cls-2" points="58.23 240.08 55.9 238.74 55.9 236.05"/><line class="cls-3" x1="55.9" y1="230.77" x2="55.9" y2="212.31"/><polyline class="cls-2" points="55.9 209.67 55.9 206.99 58.23 205.64"/><line class="cls-3" x1="62.79" y1="203" x2="78.79" y2="193.77"/><polyline class="cls-2" points="81.07 192.45 83.4 191.11 85.72 192.45"/><line class="cls-3" x1="90.29" y1="195.09" x2="106.28" y2="204.32"/><polyline class="cls-2" points="108.57 205.64 110.9 206.99 110.9 209.67"/><line class="cls-3" x1="110.9" y1="214.95" x2="110.9" y2="233.41"/><polyline class="cls-2" points="110.9 236.05 110.9 238.74 108.57 240.08"/><line class="cls-3" x1="104" y1="242.72" x2="88.01" y2="251.95"/><polyline class="cls-5" points="141 253.27 138.67 254.61 136.34 253.27"/><line class="cls-6" x1="131.77" y1="250.63" x2="115.78" y2="241.4"/><polyline class="cls-5" points="113.5 240.08 111.17 238.74 111.17 236.05"/><line class="cls-6" x1="111.17" y1="230.77" x2="111.17" y2="212.31"/><polyline class="cls-5" points="111.17 209.67 111.17 206.99 113.5 205.64"/><line class="cls-6" x1="118.07" y1="203" x2="134.06" y2="193.77"/><polyline class="cls-5" points="136.34 192.45 138.67 191.11 141 192.45"/><line class="cls-6" x1="145.57" y1="195.09" x2="161.56" y2="204.32"/><polyline class="cls-5" points="163.84 205.64 166.17 206.99 166.17 209.67"/><line class="cls-6" x1="166.17" y1="214.95" x2="166.17" y2="233.41"/><polyline class="cls-5" points="166.17 236.05 166.17 238.74 163.84 240.08"/><line class="cls-6" x1="159.27" y1="242.72" x2="143.28" y2="251.95"/><g class="cls-4"><polyline class="cls-5" points="58.09 300.87 55.76 302.21 53.43 300.87"/><line class="cls-6" x1="48.86" y1="298.23" x2="32.87" y2="289"/><polyline class="cls-5" points="30.59 287.68 28.26 286.33 28.26 283.65"/><line class="cls-6" x1="28.26" y1="278.37" x2="28.26" y2="259.91"/><polyline class="cls-5" points="28.26 257.27 28.26 254.58 30.59 253.24"/><line class="cls-6" x1="35.16" y1="250.6" x2="51.15" y2="241.37"/><polyline class="cls-5" points="53.43 240.05 55.76 238.71 58.09 240.05"/><line class="cls-6" x1="62.66" y1="242.69" x2="78.65" y2="251.92"/><polyline class="cls-5" points="80.93 253.24 83.26 254.58 83.26 257.27"/><line class="cls-6" x1="83.26" y1="262.54" x2="83.26" y2="281.01"/><polyline class="cls-5" points="83.26 283.65 83.26 286.33 80.93 287.68"/><line class="cls-6" x1="76.36" y1="290.32" x2="60.37" y2="299.55"/></g><polyline class="cls-2" points="113.36 300.87 111.03 302.21 108.71 300.87"/><line class="cls-3" x1="104.14" y1="298.23" x2="88.15" y2="289"/><polyline class="cls-2" points="85.86 287.68 83.53 286.33 83.53 283.65"/><line class="cls-3" x1="83.54" y1="278.37" x2="83.54" y2="259.91"/><polyline class="cls-2" points="83.53 257.27 83.53 254.58 85.86 253.24"/><line class="cls-3" x1="90.43" y1="250.6" x2="106.42" y2="241.37"/><polyline class="cls-2" points="108.71 240.05 111.03 238.71 113.36 240.05"/><line class="cls-3" x1="117.93" y1="242.69" x2="133.92" y2="251.92"/><polyline class="cls-2" points="136.21 253.24 138.53 254.58 138.53 257.27"/><line class="cls-3" x1="138.53" y1="262.54" x2="138.53" y2="281.01"/><polyline class="cls-2" points="138.53 283.65 138.53 286.33 136.21 287.68"/><line class="cls-3" x1="131.64" y1="290.32" x2="115.65" y2="299.55"/></g><g id="Layer_22" data-name="Layer 22"><g class="cls-4"><polyline class="cls-5" points="223.91 110.48 221.58 111.82 219.25 110.48"/><line class="cls-6" x1="214.69" y1="107.84" x2="198.69" y2="98.61"/><polyline class="cls-5" points="196.41 97.29 194.08 95.95 194.08 93.26"/><line class="cls-6" x1="194.08" y1="87.98" x2="194.08" y2="69.52"/><polyline class="cls-5" points="194.08 66.88 194.08 64.19 196.41 62.85"/><line class="cls-6" x1="200.98" y1="60.21" x2="216.97" y2="50.98"/><polyline class="cls-5" points="219.25 49.66 221.58 48.32 223.91 49.66"/><line class="cls-6" x1="228.48" y1="52.3" x2="244.47" y2="61.53"/><polyline class="cls-5" points="246.75 62.85 249.08 64.19 249.08 66.88"/><line class="cls-6" x1="249.08" y1="72.16" x2="249.08" y2="90.62"/><polyline class="cls-5" points="249.08 93.26 249.08 95.95 246.75 97.29"/><line class="cls-6" x1="242.18" y1="99.93" x2="226.19" y2="109.16"/></g><polyline class="cls-2" points="279.18 110.48 276.86 111.82 274.53 110.48"/><line class="cls-3" x1="269.96" y1="107.84" x2="253.97" y2="98.61"/><polyline class="cls-2" points="251.68 97.29 249.36 95.95 249.36 93.26"/><line class="cls-3" x1="249.36" y1="87.98" x2="249.36" y2="69.52"/><polyline class="cls-2" points="249.36 66.88 249.36 64.19 251.68 62.85"/><line class="cls-3" x1="256.25" y1="60.21" x2="272.24" y2="50.98"/><polyline class="cls-2" points="274.53 49.66 276.86 48.32 279.18 49.66"/><line class="cls-3" x1="283.75" y1="52.3" x2="299.74" y2="61.53"/><polyline class="cls-2" points="302.03 62.85 304.35 64.19 304.35 66.88"/><line class="cls-3" x1="304.35" y1="72.16" x2="304.35" y2="90.62"/><polyline class="cls-2" points="304.35 93.26 304.35 95.95 302.03 97.29"/><line class="cls-3" x1="297.46" y1="99.93" x2="281.47" y2="109.16"/><polyline class="cls-2" points="196.27 158.08 193.94 159.42 191.62 158.08"/><line class="cls-3" x1="187.05" y1="155.44" x2="171.06" y2="146.21"/><polyline class="cls-2" points="168.77 144.89 166.45 143.54 166.45 140.86"/><line class="cls-3" x1="166.45" y1="135.58" x2="166.45" y2="117.12"/><polyline class="cls-2" points="166.45 114.48 166.45 111.79 168.77 110.45"/><line class="cls-3" x1="173.34" y1="107.81" x2="189.33" y2="98.58"/><polyline class="cls-2" points="191.62 97.26 193.94 95.92 196.27 97.26"/><line class="cls-3" x1="200.84" y1="99.9" x2="216.83" y2="109.13"/><polyline class="cls-2" points="219.12 110.45 221.44 111.79 221.44 114.48"/><line class="cls-3" x1="221.44" y1="119.75" x2="221.44" y2="138.22"/><polyline class="cls-2" points="221.44 140.86 221.44 143.54 219.12 144.89"/><line class="cls-3" x1="214.55" y1="147.53" x2="198.56" y2="156.76"/><polyline class="cls-2" points="251.54 158.08 249.22 159.42 246.89 158.08"/><line class="cls-3" x1="242.32" y1="155.44" x2="226.33" y2="146.21"/><polyline class="cls-2" points="224.05 144.89 221.72 143.54 221.72 140.86"/><line class="cls-3" x1="221.72" y1="135.58" x2="221.72" y2="117.12"/><polyline class="cls-2" points="221.72 114.48 221.72 111.79 224.05 110.45"/><line class="cls-3" x1="228.61" y1="107.81" x2="244.61" y2="98.58"/><polyline class="cls-2" points="246.89 97.26 249.22 95.92 251.54 97.26"/><line class="cls-3" x1="256.11" y1="99.9" x2="272.11" y2="109.13"/><polyline class="cls-2" points="274.39 110.45 276.72 111.79 276.72 114.48"/><line class="cls-3" x1="276.72" y1="119.75" x2="276.72" y2="138.22"/><polyline class="cls-2" points="276.72 140.86 276.72 143.54 274.39 144.89"/><line class="cls-3" x1="269.82" y1="147.53" x2="253.83" y2="156.76"/><g class="cls-4"><polyline class="cls-5" points="306.82 158.08 304.49 159.42 302.16 158.08"/><line class="cls-6" x1="297.6" y1="155.44" x2="281.6" y2="146.21"/><polyline class="cls-5" points="279.32 144.89 276.99 143.54 276.99 140.86"/><line class="cls-6" x1="276.99" y1="135.58" x2="276.99" y2="117.12"/><polyline class="cls-5" points="276.99 114.48 276.99 111.79 279.32 110.45"/><line class="cls-6" x1="283.89" y1="107.81" x2="299.88" y2="98.58"/><polyline class="cls-5" points="302.16 97.26 304.49 95.92 306.82 97.26"/><line class="cls-6" x1="311.39" y1="99.9" x2="327.38" y2="109.13"/><polyline class="cls-5" points="329.66 110.45 331.99 111.79 331.99 114.48"/><line class="cls-6" x1="331.99" y1="119.75" x2="331.99" y2="138.22"/><polyline class="cls-5" points="331.99 140.86 331.99 143.54 329.66 144.89"/><line class="cls-6" x1="325.09" y1="147.53" x2="309.1" y2="156.76"/></g><polyline class="cls-5" points="223.91 205.67 221.58 207.02 219.25 205.67"/><line class="cls-6" x1="214.69" y1="203.04" x2="198.69" y2="193.8"/><polyline class="cls-5" points="196.41 192.48 194.08 191.14 194.08 188.45"/><line class="cls-6" x1="194.08" y1="183.18" x2="194.08" y2="164.71"/><polyline class="cls-5" points="194.08 162.07 194.08 159.39 196.41 158.04"/><line class="cls-6" x1="200.98" y1="155.41" x2="216.97" y2="146.17"/><polyline class="cls-5" points="219.25 144.85 221.58 143.51 223.91 144.85"/><line class="cls-6" x1="228.48" y1="147.49" x2="244.47" y2="156.73"/><polyline class="cls-5" points="246.75 158.04 249.08 159.39 249.08 162.07"/><line class="cls-6" x1="249.08" y1="167.35" x2="249.08" y2="185.82"/><polyline class="cls-5" points="249.08 188.45 249.08 191.14 246.75 192.48"/><line class="cls-6" x1="242.18" y1="195.12" x2="226.19" y2="204.35"/><polyline class="cls-2" points="279.18 205.67 276.86 207.02 274.53 205.67"/><line class="cls-3" x1="269.96" y1="203.04" x2="253.97" y2="193.8"/><polyline class="cls-2" points="251.68 192.48 249.36 191.14 249.36 188.45"/><line class="cls-3" x1="249.36" y1="183.18" x2="249.36" y2="164.71"/><polyline class="cls-2" points="249.36 162.07 249.36 159.39 251.68 158.04"/><line class="cls-3" x1="256.25" y1="155.41" x2="272.24" y2="146.17"/><polyline class="cls-2" points="274.53 144.85 276.86 143.51 279.18 144.85"/><line class="cls-3" x1="283.75" y1="147.49" x2="299.74" y2="156.73"/><polyline class="cls-2" points="302.03 158.04 304.35 159.39 304.35 162.07"/><line class="cls-3" x1="304.35" y1="167.35" x2="304.35" y2="185.82"/><polyline class="cls-2" points="304.35 188.45 304.35 191.14 302.03 192.48"/><line class="cls-3" x1="297.46" y1="195.12" x2="281.47" y2="204.35"/></g><g id="Layer_23" data-name="Layer 23"><g class="cls-4"><polyline class="cls-5" points="85.72 62.88 83.4 64.23 81.07 62.88"/><line class="cls-6" x1="76.5" y1="60.25" x2="60.51" y2="51.01"/><polyline class="cls-5" points="58.23 49.69 55.9 48.35 55.9 45.66"/><line class="cls-6" x1="55.9" y1="40.39" x2="55.9" y2="21.92"/><polyline class="cls-5" points="55.9 19.29 55.9 16.6 58.23 15.26"/><line class="cls-6" x1="62.79" y1="12.62" x2="78.79" y2="3.38"/><polyline class="cls-5" points="81.07 2.06 83.4 0.72 85.72 2.06"/><line class="cls-6" x1="90.29" y1="4.7" x2="106.28" y2="13.94"/><polyline class="cls-5" points="108.57 15.26 110.9 16.6 110.9 19.29"/><line class="cls-6" x1="110.9" y1="24.56" x2="110.9" y2="43.03"/><polyline class="cls-5" points="110.9 45.66 110.9 48.35 108.57 49.69"/><line class="cls-6" x1="104" y1="52.33" x2="88.01" y2="61.57"/></g><polyline class="cls-2" points="141 62.88 138.67 64.23 136.34 62.88"/><line class="cls-3" x1="131.77" y1="60.25" x2="115.78" y2="51.01"/><polyline class="cls-2" points="113.5 49.69 111.17 48.35 111.17 45.66"/><line class="cls-3" x1="111.17" y1="40.39" x2="111.17" y2="21.92"/><polyline class="cls-2" points="111.17 19.29 111.17 16.6 113.5 15.26"/><line class="cls-3" x1="118.07" y1="12.62" x2="134.06" y2="3.38"/><polyline class="cls-2" points="136.34 2.06 138.67 0.72 141 2.06"/><line class="cls-3" x1="145.57" y1="4.7" x2="161.56" y2="13.94"/><polyline class="cls-2" points="163.84 15.26 166.17 16.6 166.17 19.29"/><line class="cls-3" x1="166.17" y1="24.56" x2="166.17" y2="43.03"/><polyline class="cls-2" points="166.17 45.66 166.17 48.35 163.84 49.69"/><line class="cls-3" x1="159.27" y1="52.33" x2="143.28" y2="61.57"/><polyline class="cls-2" points="58.09 110.48 55.76 111.82 53.43 110.48"/><line class="cls-3" x1="48.86" y1="107.84" x2="32.87" y2="98.61"/><polyline class="cls-2" points="30.59 97.29 28.26 95.95 28.26 93.26"/><line class="cls-3" x1="28.26" y1="87.98" x2="28.26" y2="69.52"/><polyline class="cls-2" points="28.26 66.88 28.26 64.19 30.59 62.85"/><line class="cls-3" x1="35.16" y1="60.21" x2="51.15" y2="50.98"/><polyline class="cls-2" points="53.43 49.66 55.76 48.32 58.09 49.66"/><line class="cls-3" x1="62.66" y1="52.3" x2="78.65" y2="61.53"/><polyline class="cls-2" points="80.93 62.85 83.26 64.19 83.26 66.88"/><line class="cls-3" x1="83.26" y1="72.16" x2="83.26" y2="90.62"/><polyline class="cls-2" points="83.26 93.26 83.26 95.95 80.93 97.29"/><line class="cls-3" x1="76.36" y1="99.93" x2="60.37" y2="109.16"/><polyline class="cls-2" points="113.36 110.48 111.03 111.82 108.71 110.48"/><line class="cls-3" x1="104.14" y1="107.84" x2="88.15" y2="98.61"/><polyline class="cls-2" points="85.86 97.29 83.53 95.95 83.53 93.26"/><line class="cls-3" x1="83.54" y1="87.98" x2="83.54" y2="69.52"/><polyline class="cls-2" points="83.53 66.88 83.53 64.19 85.86 62.85"/><line class="cls-3" x1="90.43" y1="60.21" x2="106.42" y2="50.98"/><polyline class="cls-2" points="108.71 49.66 111.03 48.32 113.36 49.66"/><line class="cls-3" x1="117.93" y1="52.3" x2="133.92" y2="61.53"/><polyline class="cls-2" points="136.21 62.85 138.53 64.19 138.53 66.88"/><line class="cls-3" x1="138.53" y1="72.16" x2="138.53" y2="90.62"/><polyline class="cls-2" points="138.53 93.26 138.53 95.95 136.21 97.29"/><line class="cls-3" x1="131.64" y1="99.93" x2="115.65" y2="109.16"/><g class="cls-4"><polyline class="cls-5" points="168.63 110.48 166.31 111.82 163.98 110.48"/><line class="cls-6" x1="159.41" y1="107.84" x2="143.42" y2="98.61"/><polyline class="cls-5" points="141.14 97.29 138.81 95.95 138.81 93.26"/><line class="cls-6" x1="138.81" y1="87.98" x2="138.81" y2="69.52"/><polyline class="cls-5" points="138.81 66.88 138.81 64.19 141.14 62.85"/><line class="cls-6" x1="145.7" y1="60.21" x2="161.7" y2="50.98"/><polyline class="cls-5" points="163.98 49.66 166.31 48.32 168.63 49.66"/><line class="cls-6" x1="173.2" y1="52.3" x2="189.2" y2="61.53"/><polyline class="cls-5" points="191.48 62.85 193.81 64.19 193.81 66.88"/><line class="cls-6" x1="193.81" y1="72.16" x2="193.81" y2="90.62"/><polyline class="cls-5" points="193.81 93.26 193.81 95.95 191.48 97.29"/><line class="cls-6" x1="186.91" y1="99.93" x2="170.92" y2="109.16"/></g><g class="cls-4"><polyline class="cls-5" points="85.72 158.08 83.4 159.42 81.07 158.08"/><line class="cls-6" x1="76.5" y1="155.44" x2="60.51" y2="146.21"/><polyline class="cls-5" points="58.23 144.89 55.9 143.54 55.9 140.86"/><line class="cls-6" x1="55.9" y1="135.58" x2="55.9" y2="117.12"/><polyline class="cls-5" points="55.9 114.48 55.9 111.79 58.23 110.45"/><line class="cls-6" x1="62.79" y1="107.81" x2="78.79" y2="98.58"/><polyline class="cls-5" points="81.07 97.26 83.4 95.92 85.72 97.26"/><line class="cls-6" x1="90.29" y1="99.9" x2="106.28" y2="109.13"/><polyline class="cls-5" points="108.57 110.45 110.9 111.79 110.9 114.48"/><line class="cls-6" x1="110.9" y1="119.75" x2="110.9" y2="138.22"/><polyline class="cls-5" points="110.9 140.86 110.9 143.54 108.57 144.89"/><line class="cls-6" x1="104" y1="147.53" x2="88.01" y2="156.76"/></g><polyline class="cls-2" points="141 158.08 138.67 159.42 136.34 158.08"/><line class="cls-3" x1="131.77" y1="155.44" x2="115.78" y2="146.21"/><polyline class="cls-2" points="113.5 144.89 111.17 143.54 111.17 140.86"/><line class="cls-3" x1="111.17" y1="135.58" x2="111.17" y2="117.12"/><polyline class="cls-2" points="111.17 114.48 111.17 111.79 113.5 110.45"/><line class="cls-3" x1="118.07" y1="107.81" x2="134.06" y2="98.58"/><polyline class="cls-2" points="136.34 97.26 138.67 95.92 141 97.26"/><line class="cls-3" x1="145.57" y1="99.9" x2="161.56" y2="109.13"/><polyline class="cls-2" points="163.84 110.45 166.17 111.79 166.17 114.48"/><line class="cls-3" x1="166.17" y1="119.75" x2="166.17" y2="138.22"/><polyline class="cls-2" points="166.17 140.86 166.17 143.54 163.84 144.89"/><line class="cls-3" x1="159.27" y1="147.53" x2="143.28" y2="156.76"/><polyline class="cls-2" points="168.63 205.67 166.31 207.02 163.98 205.67"/><line class="cls-3" x1="159.41" y1="203.04" x2="143.42" y2="193.8"/><polyline class="cls-2" points="141.14 192.48 138.81 191.14 138.81 188.45"/><line class="cls-3" x1="138.81" y1="183.18" x2="138.81" y2="164.71"/><polyline class="cls-2" points="138.81 162.07 138.81 159.39 141.14 158.04"/><line class="cls-3" x1="145.7" y1="155.41" x2="161.7" y2="146.17"/><polyline class="cls-2" points="163.98 144.85 166.31 143.51 168.63 144.85"/><line class="cls-3" x1="173.2" y1="147.49" x2="189.2" y2="156.73"/><polyline class="cls-2" points="191.48 158.04 193.81 159.39 193.81 162.07"/><line class="cls-3" x1="193.81" y1="167.35" x2="193.81" y2="185.82"/><polyline class="cls-2" points="193.81 188.45 193.81 191.14 191.48 192.48"/><line class="cls-3" x1="186.91" y1="195.12" x2="170.92" y2="204.35"/></g><g id="Icons"><path class="cls-7" d="M103.9,76.05a2.08,2.08,0,0,0-2.28,1.61.17.17,0,0,0,.15.21l1,.12a.23.23,0,0,0,.17-.2.79.79,0,0,1,.82-.62.66.66,0,0,1,.57.26,1.33,1.33,0,0,1,.14.76v.15a6.7,6.7,0,0,0-1.93.35,1.79,1.79,0,0,0-1.08,1.71A1.46,1.46,0,0,0,103,82a2,2,0,0,0,1.69-.75,2.34,2.34,0,0,0,.58.69.2.2,0,0,0,.24,0v0c.2-.19.57-.53.78-.71a.2.2,0,0,0,0-.28,1.39,1.39,0,0,1-.38-1V78.37a2.27,2.27,0,0,0-.44-1.8A2.3,2.3,0,0,0,103.9,76.05Zm13.37,0A2.08,2.08,0,0,0,115,77.66a.17.17,0,0,0,.14.21l1,.12a.23.23,0,0,0,.17-.2.79.79,0,0,1,.82-.62.66.66,0,0,1,.57.26,1.32,1.32,0,0,1,.12.76v.15a6.57,6.57,0,0,0-1.91.35,1.78,1.78,0,0,0-1.08,1.71A1.46,1.46,0,0,0,116.34,82a2,2,0,0,0,1.69-.75,2.34,2.34,0,0,0,.58.69.2.2,0,0,0,.24,0v0c.2-.19.57-.53.78-.71s.06-.18,0-.28a1.39,1.39,0,0,1-.38-1V78.37a2.28,2.28,0,0,0-.45-1.8A2.31,2.31,0,0,0,117.27,76.05Zm-7.52.06a1.34,1.34,0,0,0-1.34,1h0v-.7a.21.21,0,0,0-.19-.19h-.95a.2.2,0,0,0-.2.2v5.37a.21.21,0,0,0,.18.19h1a.2.2,0,0,0,.2-.2V78.92c0-.62,0-1.47.71-1.47s.62.87.62,1.47v2.85a.2.2,0,0,0,.18.2h1a.2.2,0,0,0,.19-.2V78.92a3.11,3.11,0,0,1,.1-1,.68.68,0,0,1,.61-.45.52.52,0,0,1,.59.46,6.78,6.78,0,0,1,0,1v2.85a.21.21,0,0,0,.19.2h1a.2.2,0,0,0,.2-.2v-3.4a2.94,2.94,0,0,0-.27-1.68,1.41,1.41,0,0,0-1.18-.58,1.45,1.45,0,0,0-1.41,1,1.33,1.33,0,0,0-1.32-1Zm17.36,0c-1.48,0-2.29,1.29-2.29,3s.81,3,2.29,3,2.33-1.3,2.33-2.94S128.62,76.11,127.11,76.11Zm5.82,0a1.39,1.39,0,0,0-1.39,1.08h0v-.82a.2.2,0,0,0-.19-.14h-.94a.2.2,0,0,0-.2.17v5.37a.21.21,0,0,0,.19.2h1a.2.2,0,0,0,.2-.2V78.88a2.37,2.37,0,0,1,.18-1,.65.65,0,0,1,.58-.43c.7,0,.63.86.63,1.45V81.8a.22.22,0,0,0,.19.17h1a.2.2,0,0,0,.2-.17V78.41a3.57,3.57,0,0,0-.26-1.67A1.35,1.35,0,0,0,132.93,76.11Zm-12.25.09a.19.19,0,0,0-.19.2v.77a.19.19,0,0,0,.19.2h1.75l-2,2.95a1,1,0,0,0-.14.54v.78c0,.11.13.23.24.17a3.76,3.76,0,0,1,3.54,0c.13.07.26-.06.26-.18V80.8a.36.36,0,0,0-.19-.29,3.59,3.59,0,0,0-1.91-.42L124,77.54a1.08,1.08,0,0,0,.25-.48V76.4a.19.19,0,0,0-.19-.2Zm6.43,1a.66.66,0,0,1,.68.51,5.23,5.23,0,0,1,.14,1.42c0,.69,0,1.83-.82,1.83s-.8-1.41-.8-2.06S126.36,77.21,127.11,77.21Zm-22.67,2v.23a2.11,2.11,0,0,1-.18,1.11.82.82,0,0,1-.7.48c-.39,0-.63-.32-.63-.77C102.93,79.33,103.71,79.17,104.44,79.17Zm13.37,0v.23a2.11,2.11,0,0,1-.18,1.11.82.82,0,0,1-.71.48c-.39,0-.62-.32-.62-.77C116.3,79.33,117.08,79.17,117.81,79.17Zm6.62,3v.77H125v-.77Zm-15,.13v5.48h.48v-.49a1.16,1.16,0,0,0,.36.44.79.79,0,0,0,.47.14,1.1,1.1,0,0,0,.92-.54,2.66,2.66,0,0,0,.4-1.56,3.09,3.09,0,0,0-.18-1.12,1.5,1.5,0,0,0-.46-.69,1,1,0,0,0-.65-.24.81.81,0,0,0-.46.14,1.13,1.13,0,0,0-.36.41v-2Zm4.91,1.29a1.08,1.08,0,0,0-1.16,1.14,1.24,1.24,0,0,0,.12.52,1,1,0,0,0,.32.37,3.86,3.86,0,0,0,.81.34,1.75,1.75,0,0,1,.52.23.45.45,0,0,1,.16.36.62.62,0,0,1-.19.45.7.7,0,0,1-.52.17.72.72,0,0,1-.54-.2,1,1,0,0,1-.24-.62l-.52.11c.12.85.55,1.27,1.28,1.27a1.16,1.16,0,0,0,.91-.35,1.27,1.27,0,0,0,.35-.92,1.19,1.19,0,0,0-.11-.53.83.83,0,0,0-.29-.35,3.9,3.9,0,0,0-.84-.34,2.41,2.41,0,0,1-.55-.24.42.42,0,0,1-.16-.35.47.47,0,0,1,.16-.37.73.73,0,0,1,.5-.15c.4,0,.62.22.66.65l.51-.08a1.68,1.68,0,0,0-.19-.63,1,1,0,0,0-.39-.36A1.29,1.29,0,0,0,114.34,83.56Zm3.17,0a1.24,1.24,0,0,0-1,.53,2.58,2.58,0,0,0-.39,1.57,2.55,2.55,0,0,0,.39,1.52,1.26,1.26,0,0,0,1,.52,1.18,1.18,0,0,0,.86-.32,1.63,1.63,0,0,0,.49-1l-.53-.09c-.15.54-.43.81-.82.81a.73.73,0,0,1-.62-.33,1.73,1.73,0,0,1-.29-1h2.28v-.18a2.54,2.54,0,0,0-.4-1.53,1.2,1.2,0,0,0-1-.53Zm3.14,0a.48.48,0,0,0-.33.13,1.72,1.72,0,0,0-.33.56v-.61h-.47v4H120V85.54a3.7,3.7,0,0,1,.09-.83.72.72,0,0,1,.2-.34.47.47,0,0,1,.31-.12.61.61,0,0,1,.37.15l.17-.63A.88.88,0,0,0,120.65,83.56Zm6.34,0a1.2,1.2,0,0,0-1,.52,2.55,2.55,0,0,0-.39,1.55,2.59,2.59,0,0,0,.39,1.55,1.16,1.16,0,0,0,1,.52,1.11,1.11,0,0,0,.85-.37,1.88,1.88,0,0,0,.44-1.09l-.5-.08a1.34,1.34,0,0,1-.27.74.65.65,0,0,1-.5.24.74.74,0,0,1-.63-.36,2.13,2.13,0,0,1-.24-1.16,2,2,0,0,1,.26-1.14.76.76,0,0,1,.63-.38.59.59,0,0,1,.44.2,1.32,1.32,0,0,1,.25.61l.51-.1a1.58,1.58,0,0,0-.41-.94,1.1,1.1,0,0,0-.8-.31Zm3,0a1.24,1.24,0,0,0-1,.53,2.58,2.58,0,0,0-.39,1.57,2.55,2.55,0,0,0,.39,1.52,1.26,1.26,0,0,0,1.05.52,1.19,1.19,0,0,0,.86-.32,1.69,1.69,0,0,0,.49-1l-.53-.09q-.22.81-.81.81a.76.76,0,0,1-.63-.33,1.81,1.81,0,0,1-.29-1h2.28v-.18a2.54,2.54,0,0,0-.4-1.53A1.19,1.19,0,0,0,130,83.56Zm3.06,0a1.15,1.15,0,0,0-.85.32,1.13,1.13,0,0,0-.3.82,1.24,1.24,0,0,0,.1.52,1,1,0,0,0,.32.37,3.86,3.86,0,0,0,.81.34,1.86,1.86,0,0,1,.53.23.42.42,0,0,1,.16.36.61.61,0,0,1-.18.45.73.73,0,0,1-.52.17.69.69,0,0,1-.54-.2,1,1,0,0,1-.26-.62l-.51.11c.11.85.54,1.27,1.27,1.27a1.22,1.22,0,0,0,.93-.35,1.3,1.3,0,0,0,.34-.92,1.19,1.19,0,0,0-.1-.53.88.88,0,0,0-.31-.35,3.39,3.39,0,0,0-.82-.34,2.78,2.78,0,0,1-.57-.24.42.42,0,0,1-.16-.35.48.48,0,0,1,.17-.37.74.74,0,0,1,.51-.15c.39,0,.61.22.66.65l.5-.08A1.53,1.53,0,0,0,134,84a1,1,0,0,0-.4-.36,1.26,1.26,0,0,0-.6-.12Zm-11.83.08,1.16,4h.49l1.15-4h-.53l-.68,2.43c-.08.29-.15.54-.2.75,0-.26-.11-.54-.18-.81l-.66-2.37Zm3.25,0v4H125v-4Zm-17,0a1.22,1.22,0,0,0-1,.55A2.57,2.57,0,0,0,106,85.8a2.43,2.43,0,0,0,.4,1.51,1.26,1.26,0,0,0,1,.53,1.15,1.15,0,0,0,.84-.33,1.75,1.75,0,0,0,.48-1l-.52-.08c-.15.54-.42.81-.8.81a.77.77,0,0,1-.63-.33,1.84,1.84,0,0,1-.29-1h2.25l0-.19a2.59,2.59,0,0,0-.4-1.54A1.19,1.19,0,0,0,107.43,83.69Zm-5.82.1.92,4h.55l.61-3,.1.68.5,2.37h.53l.94-4h-.49l-.52,2.29-.17.77-.16-.77L104,83.79h-.53L103,86.11l-.16.82-.19-.85-.47-2.29Zm15.88.31a.76.76,0,0,1,.64.38,1.45,1.45,0,0,1,.21.77h-1.71a1.47,1.47,0,0,1,.28-.83A.75.75,0,0,1,117.49,84.1Zm12.44,0a.76.76,0,0,1,.64.38,1.45,1.45,0,0,1,.21.77h-1.71a1.47,1.47,0,0,1,.28-.83A.74.74,0,0,1,129.93,84.1Zm-22.5.15a.71.71,0,0,1,.62.37,1.51,1.51,0,0,1,.21.77h-1.68a1.44,1.44,0,0,1,.26-.83A.73.73,0,0,1,107.43,84.25Zm3.29,0a.7.7,0,0,1,.58.37,2.88,2.88,0,0,1,0,2.28.71.71,0,0,1-.57.39.64.64,0,0,1-.43-.16,1,1,0,0,1-.29-.47,3,3,0,0,1-.1-.92,2,2,0,0,1,.25-1.1A.69.69,0,0,1,110.72,84.25Zm-16.55-4.2-2,.84,1.83.79,2.12-.79Zm-3,1.06-.06,3.82L94,86.2v-4Zm5.94,0-2.61,1v3.74l2.61-1.06Zm3.12-11.89-2,.85,1.84.78,2.13-.78ZM97.5,70.35v3.82l2.47.72.08-3.48Zm5.52.21-2.34,1v3.75L103,74.25Zm-12.1,4-2,.85,1.83.78,2.12-.78Zm-3,1.06-.07,3.82,2.89,1.27v-4Zm5.94,0-2.62,1V80.4l2.62-1.07Zm3.39-1.2-2,.85,1.83.78,2.12-.78Zm-3,1.06-.06,3.82,2.89,1.27v-4Zm5.94,0-2.61,1v3.74l2.61-1.06Zm6.23-6.3-2,.85,1.83.78,2.12-.78Zm-3,1.06-.07,3.82,2.89,1.28v-4Zm5.94,0-2.61,1V75L109.45,74Z"/><path class="cls-7" d="M46,74.91a1.73,1.73,0,0,0-1.73,1.73v7.25a1.73,1.73,0,0,0,3.46,0V76.64A1.74,1.74,0,0,0,46,74.91m14-6.51,1.2-2.2a.24.24,0,0,0-.09-.33.25.25,0,0,0-.33.1L59.49,68.2a8.07,8.07,0,0,0-3.39-.71,8.21,8.21,0,0,0-3.38.7L51.5,66a.22.22,0,0,0-.32-.09.24.24,0,0,0-.1.32l1.21,2.2a7.09,7.09,0,0,0-4,6.24H63.9a7.08,7.08,0,0,0-4-6.23m-7.37,3.41a.65.65,0,1,1,.65-.65.65.65,0,0,1-.65.65m7.1,0a.66.66,0,0,1-.66-.65.66.66,0,1,1,1.31,0,.65.65,0,0,1-.65.65M48.38,75.24V86.47a1.84,1.84,0,0,0,1.85,1.84h1.25v3.84a1.73,1.73,0,1,0,3.46,0V88.31h2.34v3.83a1.73,1.73,0,0,0,3.46,0V88.31H62a1.85,1.85,0,0,0,1.85-1.85V75.24ZM68,76.64a1.73,1.73,0,1,0-3.46,0v7.24a1.73,1.73,0,0,0,3.46,0Z"/><path class="cls-7" d="M136.44,127.86H141l-2.44-5.1Zm2.16-12.41-11.68,4.11,1.84,15.31,9.85,5.41,9.9-5.49,1.84-15.3ZM135.49,130l-1.43,3.59h-2.68l7.22-16,0,0h0v0h0l0,0v0h0v0l7.52,16-2.57-.05L142,130l-3.38,0"/><path class="cls-7" d="M214.05,112.92l-.22,0-.08,0-.12-.11-.14-.07-.14,0-.16.06H213l-.13,0-.13.09,0,0-.19,0-.21.07-.24.09-.21.12,0,0-.27,0-.27.07-.24.09-.21.13,0,0-.27.07-.29.16-.13.09-.22.07-.18.09-.16.12-.16.11-.12.15-.13.2-.22,0-.3.09-.28.21-.24.26-.19.34,0,.11-.27.13-.26.18-.24.2-.2.23-.18.26,0,0-.32.18L206,117l-.26.24-.15.17-.44,0-.4.1-.32.13-.27.18-.2.23-.1.17-.25,0-.37.19-.21.17-.12.2-.27.13-.21.17-.2.18-.08.08-.37.19-.4.27-.31.29,0,.06-.48.13-.4.27-.2.23-.58.42-.31.29-.13.15-.33,0-.35.1-.26.23-.2.29-.1.22-.23.21-.39.43,0,0,0,0-.52.42-.44.38-.37.35-.12.14-.29.26-.29.27,0,0-.4.22-.37.24-.28.26-.21.23-.43.08-.29.21-.26.23-.05.06-.49.14-.31.18-.21.18-.32.13-.37.24-.26.28-.42.19-.32.24-.13.14-.45.17-.35.21-.28.26-.05.06-.59.25-.34.21-.31.29,0,0-.32.08-.24.09-.19.15-.21.18-.12.19-.32.08-.27.12-.31.24-.21.23-.17.31v.06l-.37.18-.35.21-.23.26-.4.11-.27.12-.23.21-.15.22-.09.28-.33,0-.3.1-.23.21-.13.19-.06.25-.19,0-.14,0-.1.06-.13.09-.13.14-.05.11,0,.23v.05l-.23.21-.21.23-.12.25v.3l0,.24.15.3.18.26.18.26.21.24.43.44.45.24.28.1,0,0a2.13,2.13,0,0,1-.55.33l-.2-.12-.17-.15-.7-.68-.17-.15-.37-.28-.17-.1-.2-.07-.19-.07-.2-.07-.19,0h-.19l-.41.05,0,0-.18-.21-.06-.1-.12-.21-.16.06,0,.3.1.29.13.27.17.21.15.18.2.18.23.15.11.05-.08,0-.19,0-.36-.11-.2-.08-.2-.12-.37-.28v.47l.1.24.15.23.17.16.2.12.22.1.25.07,0,0-.19.14.09.13.16-.06.65-.15h1.5c-2.07,1.05-4.39,2.08-7.27,3.29,1.11.21,3.27-.71,4.35-.94a33.32,33.32,0,0,0,3.2-1.44l-.45.79-.27.48-.22.54-.09.27v.28l0,.27,0,.25,0,.27,0,.25.1.24.15.23.16-.06V143l0-.38.06-.41.08-.39.08-.14,0-.12.27-.48.09-.22.21-1.11,0-.22,0-.16.05-.12-.08,0c.08,0,.13-.09.18-.09v.05l-.24,1-.1.58,0,.58,0,.33.05.3.09.24.13.21.17.21.23.15.42.17-.19-.48-.07-.27-.05-.25v-.21l0-.2.08-.44,0,0,.21.23.26.23.31.23.39.2.11-.12-.12-.16-.33-.5-.1-.18-.24-.53-.27-.76-.24-.83a1.48,1.48,0,0,1,.38-.18l.25.69.1.24,0,.25.15.23.15.24.18.21.2.18.2.12.25.07h.3l.35-.1.24-.15.19.07H186l.19,0,.16-.06.19,0,.31-.18.06-.06,0,0,.24,0,.27-.07.27-.18.2-.23.12-.26.09,0,.32,0,.27-.07.24-.1.24-.2.15-.18.27-.07.27-.12.26-.18.3-.05.32-.12.31-.24.31-.29h.06l.35,0,.32-.13.27-.13.26-.23.15-.28.16-.07.24-.09.18-.15.15-.17.13-.2.13,0,.35-.21.31-.29.3-.4.14,0,.31-.19.29-.26.33-.43.32-.18.28-.26.26-.35.19,0,.37-.19.31-.29.25-.34,0,0,.19-.15.25-.29.23-.36.21-.13.26-.18.24-.2.25-.29.08,0,.35-.21.31-.24.31-.29.26-.34,0,0,.21-.12.26-.23.26-.24,0,0,.21-.12.37-.3.36-.35.33-.43.24-.15.29-.21.23-.2.23-.26h.06l.32-.13.26-.18.21-.23.14-.28,0-.33.35-.16.36-.24.31-.35-.06,0,.08-.08.31-.3.26-.34.16-.42.29-.26.31-.35.17-.31.18-.14.18-.21.33-.48.19-.09.18-.15.12-.2,0-.22,0,0,.32-.13.29-.15.21-.23.14-.34.07-.36,0-.41.18-.2.21-.29.17-.25.19-.1.23-.2.24-.21.17-.25.15-.28.08,0,.29-.2.23-.21.21-.23.15-.23v-.24l.11-.06.18-.1.16-.12.13-.14.1-.17,0-.17.21-.17.18-.26.09-.28.18-.2.13-.2.07-.25v-.25l.15-.17.13-.2.07-.19.07-.25.18-.2,0-.12v0l.05-.11,0-.14,0-.14-.06-.1.05-.06v-.22l-.06-.1,0,0-.15-.18Zm-32.48,27.36-.11.52-.07.2-.15.23-.21.53-.12.42-.06.41v0l-.1-.29,0-.25v-.49l.07-.25.07-.25.22-.48.49-.9Zm32-25.8.37-.13.16-.07.09,0,0,.08-.08.09-.13,0h-.06l-.13.09-.37.18-.11.06-.29.1h-.22l-.08,0-.33,0h0l.33-.32h.17l.19,0,.27-.07.13,0Zm-1.45-.41.07-.2.15-.28.23-.31.1-.12.16-.12.1-.06.11-.06-.18.2-.1.17,0,0,0,.11-.13.26,0,.16-.07.25,0,.12v0l0,0-.39.32v-.05l0-.22,0-.14,0-.16.08,0Zm1.95-.91-.16.12-.45.33.2-.34.13-.15.11-.06.13,0Zm-.42-.16-.13.14-.08.14-.27.54v.05l-.47.36,0-.09.21-.64.07-.14.1-.17.23-.26.08,0,.08,0,.12,0Zm-1.33.26.08,0-.26.29-.12.25,0,0-.07.2,0,0-.05.11-.07.19v.36l0,.13-.23.21-.11.11-.23.21-.08.09-.13.09,0-.08,0-.19v-.41l0-.23.07-.19,0-.08.12-.26.08-.14.23-.26.23-.2.13-.09.21-.12Zm-.8.27-.23.26-.13.2-.12.2,0,.11-.05.06-.08.14-.09.33,0,.14,0,.08v.06l0,.18v.06l.07.21,0,.14-.65.56-.16.11,0,0,0-.27v-.06l.12-.77,0-.33.14-.5.09-.22.13-.2.12-.2.16-.17.16-.12.21-.07.28,0Zm-1,.39-.1.17-.1.17-.07.19-.11.42-.06.41,0,.33,0,.22,0,.52,0,.2v.13l-.73.65v-.06l.09-.85,0-.27.13-.56.09-.28.1-.28.12-.25.18-.2.21-.18.13-.14.15-.23.23-.15-.13,0Zm-1.16.72.41-.46-.05.06-.15.33-.14.34-.12.31-.09.33-.13.66-.11.83v.41l-.42.35-.18.15.15-.58.11-.47.09-.39.25-.92.07-.19.07-.2.17-.37.07-.19Zm-1.14.69.21-.23.21-.17.21-.07.14,0-.05.11-.07.2-.09.28,0,.22-.12.36-.26,1.16-.14.5-.13.5-.26.24-.44.43-.21.18.14-1,.17-.83.14-.44.11-.42.17-.42.14-.34.07-.14Zm-1.24,1.22.21-.23.23-.2.24-.15h0l-.12.31-.25.86-.21,1-.15.8,0,.33v.05l-.86.79v-.38l0-.63.1-.69.16-.64.11-.31.15-.28.15-.28.2-.29Zm-.91.74.29-.21.08,0-.12.31-.1.28-.09.28-.06.3,0,.28,0,.52,0,.66v.51l-1.09.94v0l-.09-.49,0-.33,0-.32v-.3l.07-.31.06-.3.1-.28.07-.2.17-.31.2-.28.39-.44.26-.23Zm-2.05,1,.18-.2.26-.18.33-.13.37-.07.22,0-.13.15-.17.25-.15.29,0,.08,0,0-.07.19-.1.23-.06.25,0,.22,0,.27v.93l.05.36.06.1,0,.25-.57.47-.26.23-.17-1-.06-.68v-.6l.06-.47.07-.25.06-.25.1-.22Zm-.42.24h.11l-.1.22-.06.31-.06.36v.35l0,.38v.17l0,.29,0,.28,0,.3.1.92-.7.61v-.57l-.06-1,0-.21v-1.07l0-.25.11-.47.07-.19.12-.2.16-.18Zm-1,.77.24-.15.08,0,0,.08-.07.31,0,.08-.06.31,0,.19,0,.14v.19l0,.25.07.26v.17l0,.33.07.73,0,.6,0,.25-.71.5-.26.24-.16-.92-.05-.47,0-.43v-.66l0-.28.06-.3,0,0,.07-.25v-.05l0-.09.1-.22.15-.23.13-.2.18-.14,0,0,0,0,.15-.12Zm-.68.48-.12.25-.05.17,0,0v0l-.05.06,0,.17,0,.08,0,.17,0,.33,0,.08v1.09l.08,1,.12.62-1.09,1-.11.06-.08.09,0-.19v-1l0-.38v-1l0-.38.06-.36,0-.08.1-.28.12-.31.14-.34.1-.17.2-.23.32-.29.37-.13Zm-1.21.78.21-.07,0,0-.2.34-.14.39-.09.39,0,0,0,.22,0,.28,0,.27v.9l0,.74,0,.8,0,.33-.23.25-.18.15-.18.15-.32.24,0-.12,0-.27v-.82l0-1.53,0-.5.08-.49.11-.48.17-.42.23-.36.25-.29.35-.16Zm-1.44,1.15.31-.29.13-.09-.07.14-.11.42-.11.41-.06.42-.06.41v2.41l0,.33-.07.19-.23.26-.34.32-.23.26.07-.6v-.82l0-.85,0-.79,0-.39.08-.39.12-.36.14-.34.16-.22.27-.43Zm-.85.32.23-.15.14,0-.14.39,0,0,0,0-.12.31-.12.31-.06.3-.07.31,0,.63v1.72l0,.74,0,.33-.31.35-.39.37v-.05l0-.19,0-.5,0-.49,0-1.42v-.66l.1-.69,0-.33.1-.33.06-.31.12-.25.18-.26Zm-1.24,1.33.46-.52-.07.2-.06.41-.05.47v.77l0,1.72,0,.6-.05.53,0,.22,0,0-.55.44-.12.14-.13-.32-.14-.43-.08-.43,0-.41,0-.43,0-.44.05-.42,0-.27.16-.59.12-.3,0-.09.12-.25.18-.31Zm-1.28,1,.34-.32.36-.35.16-.11-.15.33-.09.23-.05.11-.14.39-.12.42,0,.13v.06l-.07.3,0,.33,0,.33V127l0,.27.07.32.08.33.1.35.1.29-.1.12-.24.15-.1.11-.14.09-.05.06-.13-.32-.09-.3-.2-.59-.07-.21-.08-.38-.07-.38,0-.38v-.36l.06-.35.07-.25.12-.31.17-.31.13-.2Zm-.55.5,0,.11-.14.39,0,.09-.09.28,0,.27,0,.28v.52l.05.24.14.59.13.38.13.37.13.27.1.4-.52.42-.08.08-.15-.23-.25-.54-.1-.29-.07-.27,0-.3,0-.3v-.6l.07-.3.06-.31.1-.28.11-.31.15-.28.18-.25.28-.32Zm-1,.63.34-.21.08,0-.15.22-.17.32-.15.33-.09.34-.06.35-.06.36v.36l.05.35,0,.41.13.37.14.38.18.37.15.24-.76.62-.15-.3-.18-.37-.16-.4-.11-.4-.08-.38,0-.35,0-.38v-.36l0-.28,0,0,.1-.34.12-.25.05-.11.2-.29.25-.29.29-.26Zm-.89.71h.06l-.06,0-.14.34-.12.31,0,.08-.07.3,0,.33V128l.06.57.07.27.07.27.19.48.25.53.16.35-.5.38-.26.18-.07-.16-.12-.27-.22-.5-.17-.57,0-.08,0-.3-.05-.35,0-.38V128l0-.33.07-.3.12-.25.15-.29.18-.25.23-.21Zm-1.11.61.21-.07-.17.37-.09.28-.06.3,0,.33v.3l0,.27,0,.3,0,.3.07.22v.11l.1.4.35.83.18.31-.58.31-.41-1-.2-.59-.14-.54-.08-.32,0-.33V128l0-.27.1-.23.13-.2.18-.2,0,0,.1-.12Zm-.85.49.08,0-.05.12-.09.33-.06.36v.35l0,.41.07.38.11.4v.22l0,.14.3.94.25.64-.81.62-.09-.19-.1-.24-.23-.67-.1-.4-.08-.33-.07-.27-.06-.62,0-.33v-.3l0-.27,0-.2.07-.19.14-.34.26-.29Zm-.84.65-.06.25,0,.08,0,.17,0,.44v.46l.05.46.06.46,0,.08v.06l.15.65.1.29.19.54.1.24.09.13-.66.45-.15-.35-.32-.8-.14-.38-.2-.64-.07-.33,0-.13,0-.38v-.36l0-.33.1-.28.15-.28.23-.26.29-.21.18,0ZM189,129.08l.23-.26.32-.18.18-.1-.1.17-.07.2-.07.19,0,.28,0,.24,0,.22v.27l.07.22,0,.24.11.41.1.35.26.75.14.48.21.34-.79.6-.22-.51-.13-.32-.31-.75-.13-.37-.11-.41-.08-.38,0-.38V130l.06-.31v-.05l.09-.28Zm-.67.34.32-.13-.06.3,0,0v.11l-.07.25v.3l0,.28.08.54.08.27.26.8.45,1.18.1.24-.19.15-.52.35,0,0-1-1.94-.13-.37-.07-.22,0-.19-.07-.27,0-.27v-.22l0-.22.09-.28.18-.25.26-.24.31-.23Zm-1.43.79.21-.12.19-.09h.06l-.09.34,0,.27v.06l0,.08,0,.35.08.38.07.16,0,.08.1.3.35.88.62,1.33-1,.6-.21.18-.28-.56-.32-.8-.2-.59-.07-.32-.07-.33,0-.32,0-.33v-.3l0-.28,0-.22,0-.17.13-.25.12-.2Zm-1.39,1,.21-.23.23-.21.27-.12.13,0,0,.17,0,.08-.08.14-.09.34,0,.38v.41l.07.38.11.46.14.48.19.54.28.56.19.31.09.19-.85.54-.26-.28-.18-.27-.21-.34-.09-.19-.16-.4-.14-.43-.1-.4,0-.41v-.41l0-.38.07-.31.17-.42Zm-.62.58.19-.09v0l0,.11-.08.39,0,.39,0,.38,0,.35.05.41.13.32.13.32.15.29.06.11.13.21.09.13,0,0,.15.18.12.16.09.13.06.05-.13.09-.35.16-.21.12-.09-.19-.19-.32-.18-.31-.34-.67-.25-.53-.09-.24-.07-.27-.07-.27-.05-.24v-.22l0-.14.07-.19.15-.23.21-.23Zm-1.52,1.07.12-.2.21-.17.21-.12.14,0-.07.25v.06l0,0v.3l0,.32.07.33.13.32.09.13.12.27.66,1.35.15.24.09.19-.16.11-.1.06-.3.16-.26.18-.2-.24-.24-.31-.21-.34-.21-.35-.16-.34-.1-.3-.11-.46-.05-.46v-.46l0,0,.07-.25Zm-1.11.78.13-.2.18-.15.22-.06.27,0,0,.14,0,0,0,.33,0,.32,0,.36.1.35,0,.13,0,.19.1.24.22.45.27.45.32.45.12.15L184,137l-.48.25-.12-.16-.06-.05-.42-.63-.12-.21-.21-.4-.16-.4-.07-.21-.11-.41v-.22l-.05-.4,0-.2Zm-.75.73.05-.12.13-.14.11-.06.1-.06H182v.52l.11.35.13.38.13.37.16.35.18.37.18.32.21.28.15.19.09.13-.08.09-.18.09,0,0-.15-.19-.32-.44-.27-.4L182,136l-.21-.39-.16-.35-.1-.29,0-.25v-.32Zm.06,2.37-.21-.23-.15-.24-.15-.24-.09-.24-.1-.24v-.25l.1-.22.18-.2.16-.12,0,.19,0,.19.16.4.34.61.54.79.41.57-.21.13-.6-.49Zm-1.48,1.43-.33,0,.08,0,.16-.07.33-.07h.16l.33,0,.11.05.23.09h-.77Zm1.59,0-.38-.33.57.34-.08,0Zm-1.93-1.67.17.05.19.07.17.1.17.1.52.41.61.59-.74-.45-.17-.1-.46-.36-.2-.12-.34-.2-.17-.1Zm-.35.11.2.12.2.13.2.12-.12,0-.36-.17-.23-.15-.23-.2Zm.1.76-.25-.13-.21-.18-.12-.21-.12-.21-.1-.24,0-.08.29.26.34.25.14.07.37.17.22.1.09,0,.11.05.2.13.34.25.14.13-.08,0-.22-.1-.2-.07-.38,0-.08,0Zm-.68.58-.17-.1-.17-.15-.12-.16-.07-.21v-.06l.09.08.22.15.23.1.41.11h.2l.44,0,0,0,.25.12.08,0H180l-.21.07-.19.09-.16.06-.16,0L179,138Zm3.46,3.55v.21l0,.22,0,.25.07.27.06.1h-.06l-.2-.12-.11-.16-.1-.18-.06-.22,0-.24,0-.27.05-.58.1-.58.2-.86.06.11-.06.35,0,.2v.21l0,.22.06.22.1.18Zm.12-1.71.07.33v.35l0-.08,0-.19,0-.21Zm.15-.22.27.8.31.75.31.53,0,0-.34-.2-.23-.2-.18-.21-.12-.21,0-.28,0-.44-.12-.56-.06-.16v-.06Zm-.19-.48-.06-.11,0,0Zm2.47,1.63h-.24l-.23,0-.19-.08-.17-.15-.15-.18-.15-.24-.25-.48-.09-.24-.07-.21-.16-.4.13-.09.08,0,.15.19,0,0,.07.27.32.45.32.34.32.28.31.23.29.14.08,0-.13.09Zm1.68-.32-.14,0-.13,0-.13,0h-.17l-.19,0-.11-.05-.23-.09-.39-.14-.17-.1-.29-.26-.55-.6-.12-.15-.12-.16-.06-.11-.06-.1-.18-.27.64-.36.21.34.29.37.32.34.18.15.37.28.42.28.12,0,.36.17.23.1Zm1.35-.76-.1.17-.15.18-.22.12h-.46l-.3-.07-.29-.15-.28-.14,0,0-.28-.2-.29-.2-.29-.26-.49-.49-.2-.24-.15-.23-.09-.13.69-.37.08.13.3.42.35.36.35.31.2.13.39.25.43.22.44.14.31.06.08,0Zm1.25-.54-.21.18-.24.1-.26.07-.25,0-.27,0-.09,0-.25-.07-.33-.09-.34-.14-.31-.18-.28-.2-.29-.2-.26-.23-.23-.26-.21-.29-.12-.21.79-.49,1.24,1.05.2.13.17.15.26.18.25.17.25.13.26.12.25.07.22,0h0Zm.48-.3h-.06l0-.06-.37.13h-.11l-.25,0-.19-.07-.2-.07-.25-.12-.46-.3-.31-.23-.34-.31-.84-.69-.17-.15.19-.09.1-.06.34-.22.49.44.59.62.11.11.34.19.31.18.2.12.09.08.31.17.06.05.22.1.25.07.14,0Zm1.41-.71-.29.21-.29.16-.25,0h-.35l-.31-.06-.22-.1-.4-.2-.22-.15-.64-.56-.41-.42-.25-.23-.43-.27.58-.36.21.28.29.32.4.35.26.18.28.2.34.15.34.14.22,0,.08,0,.42.11.41.06.39,0h0l-.21.06Zm1.45-.82-.18.2-.26.13-.3.1-.27.07h-.57l-.44,0-.44-.08-.17,0-.31-.12-.39-.2-.37-.22-.34-.26-.32-.28-.29-.31-.18-.21.77-.45.4.35.43.34.54.32.28.15.31.12h.05l.12,0,.39.14.08,0h.14l.16.05.2,0,.16,0H192l.33,0,.13,0Zm.94-.76-.13.14-.18.15-.21.12-.27.07-.24,0-.28,0h-.35l-.14,0-.17,0-.22,0-.19-.07-.48-.16-.22-.1-.17-.1-.37-.22-.43-.28-.43-.33-.34-.31.21-.12.21-.12.21-.12.22-.12.36-.24.06-.06.8.61.17.1,0,0,.6.43.32.23.31.18.34.14.33.09.33,0,.19,0h0Zm.66-.45-.32.18-.29.1-.14,0-.19,0h-.25l-.22,0-.23-.1-.25-.12-.25-.12-.23-.15-.48-.33-.23-.15-.35-.31-.51-.41-.12-.1.13-.09.11-.06.53-.36.65.48.23.15.23.16.23.15.45.24.22.1.23.1.08,0,.36.11.36.07h.63l-.18.2Zm1.38-1.15-.26.24-.29.15-.21.07h-.5l-.27,0-.28,0-.41-.12-.31-.11,0,0-.31-.17-.31-.18-.63-.4-.62-.45.26-.18.11-.06.1-.06.08-.09.13-.09.05-.06.23.26.37.23,0,0,.11,0,.48.27.29.15.3.12.12.05,0,0,.11,0,0,0,.19.07.28.09.25.07.44,0h.22l.19,0h.11Zm1-.85-.26.24-.29.15-.32.13-.32,0h-.36l-.36-.06-.33-.09-.12-.05-.27-.09-.28-.1-.37-.17-.53-.27-.14-.07-.4-.25-.2-.12.74-.49.11.11.4.25.51.24.58.21.31.12.17.05.16,0,.45.09.44.08h.3l.14,0h.11l.24,0Zm1.1-.83-.26.24-.31.18-.35.1-.33,0-.19,0-.6,0-.58-.1-.17,0-.25-.07-.39-.14-.37-.17-.33-.15-.6-.37,0,0,.55-.39.32-.23.81.42.59.26.26.12.36.12.36.12.17,0,.08,0,.31.07.27,0h.3l.28,0,.13,0,0,0Zm.67-.8-.23.26-.21.18-.27.12-.35,0-.33,0-.36-.06-.16-.05-.25-.07-.31-.12-.61-.23-.65-.32-.62-.35.5-.33.17.1.22.15.46.25.25.12.25.12.25.07.22,0,.25.07.06.05.28,0,.08,0,.28,0,.32,0,.33,0,.08,0,.27-.07.08,0Zm.75-.67-.26.18-.27.12-.29.1-.19,0h-.06l-.24,0-.27,0H197l-.19,0h0l-.33,0-.25-.07-.11,0-.34-.09-.33-.15-.37-.17-.36-.17-.23-.15.47-.36.13-.08.11-.07.08,0,.28.15.06,0,.34.2.36.17.09,0,.11,0,.47.17.53.1.27,0h.3l.3,0,.22,0,.38-.07.13,0,.08,0-.32.13Zm1.51-1.29-.28.26-.32.24-.31.18-.35.16-.21.06-.38.08-.33.07H198l-.27,0-.39,0-.36-.07-.36-.11-.31-.12-.73-.34-.14-.07-.14-.08.71-.56.2.13.11.1.11,0,.09,0,.08,0,.08,0-.05.06,0,0,.3.06.39.09.36.06.39,0h.35l.38,0,.36-.05.35-.1.35-.1.13,0,0,0,.24-.09,0,.05Zm.18-.31-.32.18-.19.09-.29.1-.3.1-.29,0-.3.05-.3,0-.6,0-.29-.14-.3-.07-.28-.09-.25-.07-.17-.1-.19-.07-.06,0-.2-.13.57-.47.67.24.37.11.35.06.34.09.25.07.52,0,.55,0,.13,0h.16l.38-.08.38-.13.1-.06-.15.12-.29.21Zm1.69-1.5-.36.35-.34.27-.35.21-.18.09-.32.13-.3.1-.3,0-.13,0h-.22l-.38,0-.39,0-.36-.06h-.24l-1.45-.41.45-.38.25-.24.37.12.25.07.66.12.63.05h.3l.33,0,.3,0,.62-.11.32-.08.3-.1.19-.09.21-.07.11-.06.08,0ZM203,128l-.26.17-.32.19-.21.12-.32.13-.13,0-.38.13-.4.11-.41.05-.41,0-.43,0h-.41l-.39,0-.41-.06-.39-.09h0l-.23-.1.52-.47.18-.14.55-.09.57-.06h1.61l1.14-.07h.22l.65-.09h.06L203,128Zm1.49-1.16-.06.31-.18.2-.29.1-.35.1-.38.08-.41.05-.41,0,0,0-1.93,0-1,0-.5,0-.18,0,.1-.11.65-.51.71-.09,1.09-.07.95,0,.38,0,.41,0,.38-.07.38-.08.16-.06.16-.07.24-.09h0Zm.35-.67-.35.21-.34.15-.19.1-.08,0-.27.07-.27.07-.62.06-1.25.08h-1.21l-.4,0h-.11l.52-.47,0,0,.11-.06.1-.06,0,0,.21-.07H201l.38,0h1.4l.49,0,.51-.06.52-.06.46-.11.32-.12-.31.29Zm1.27-1.25-.23.31-.32.24-.24.09-.29.1-.41.11-.4.1-.41.06-.4,0-.39,0-.7,0H201l-.24,0-.08,0,.49-.44.21-.23.35,0,.38,0,1.61,0,.38,0h.06l.57-.06h.05l.08,0,.41-.1.37-.13.37-.19.11-.06,0,.17Zm.47-.71-.28.26-.16.12-.19.09-.32.13-.29.15-.29.1-.25,0-.65.09h-.73l-1,0-.32,0-.47,0,.13-.14.19-.15.36-.35.13,0,.32-.23.07-.09,0-.08.46,0,.5,0,.44,0,.44,0,.73,0,.36,0,.32-.07.19,0h.11l.21-.07.16-.07Zm.85-1-.15.17-.11.06,0,0-.1.12-.16.12-.21.12-.24.09h-.11l-.24,0-.3,0-.71.09-.32,0-1,0-.28,0-.49-.08.67-.59.26-.28.22,0h1.23l.25,0h1.23l.76-.1-.18.26Zm.87-1,0,.08-.1.17-.16.12-.21.12-.27.07-.3,0-.33,0h-.35l-.74,0-1.09,0h-.61l.65-.61,1.46.11.13,0h.06l.08,0h.06l.54,0,.74-.07.32-.07Zm1-1.34-.09.33-.14.28-.18.2-.21.18-.24.15-.16.06-.38.08-.73.07h-.63l-.14,0-.14,0L204.9,122l.27-.38.06,0,.26-.13.36.06.72.07.32,0h.77l.24,0,.08,0,.13,0,.38-.13.08,0,.4-.22.18-.09.16-.12.05-.06-.05.12Zm.09-.45-.24.21-.23.15-.24.15-.27.12-.48.14-.41.11-.19,0h-.16l-.27,0h-.3l-.69,0-.17-.05.89-.81.55,0,.65,0,.33,0,.32-.07.65-.15.35-.1.29-.1.08,0-.17.25Zm1.26-1.25-.2.18-.21.18-.08,0-.35.15-.27.13L209,120l-.27.07-.84.13-.27,0h-.79l.28-.31.36-.35,0,0H208l.3,0,.35,0,.84-.19.45-.11.41-.1.21-.07.27-.07Zm1.32-1.3,0,.22-.18.2-.29.15-.35.16-.37.13-.38.13-.4.11-2.25.43.76-.73.29-.1.16-.06,1.57-.37.21-.06.54-.14.4-.11.19,0H212Zm.46-.63-.13.09-.16.12-.19.09-.21.07-.08,0-1.21.32-.76.2-.13,0-.3.1-.32.07h-.25l0-.08.13-.15.45-.32h.16l.84-.08.65-.09.68-.18.35-.1.32-.13.13-.09,0,0,.11-.06-.07.2Zm.48-.66-.21.23-.21.12-.13.09-.18.1-.25.09-.56.17-.84.19-.7.09h-.22l.31-.3.47-.46,1.08-.12.79-.13.35-.1.35-.15.08,0-.13.2Zm.55-.9-.1.17-.13.14-.16.12-.18.09-.19.09-.24.1-.24,0-.54.09-1.09.12.28-.27.34-.32.08,0,.23,0,.08,0h.22l.22,0,.24,0,.21-.06.08,0h.06l.08,0h.05l.08,0,.16-.06.14-.09.28-.21.08-.09,0,.23Zm.38-.9-.59.66-.39.27-.16.06-.08,0-.11.06-.21.06,0,0-.46.06-.14,0-.08,0-.14,0h-.05l.21-.18.51-.52.14,0,.19,0,.22,0h.16l.25,0,.13,0,.35-.16.08,0,.32-.18Zm.41-1,0,.08v.06l0,.06L214,114l-.26.12-.43.14-.46.11.41-.36.65-.25.08,0,.08,0,.08,0h0l0,0Zm0-.35v.06l-.07.08-.24.15-.24.1.34-.32,0,0,.16-.12Z"/><path class="cls-7" d="M119.39,163.51a4.06,4.06,0,0,1,4,4v17.17a4,4,0,0,1-4,4H102.21a4,4,0,0,1-4-4V167.55a4.06,4.06,0,0,1,4-4h17.18m0-.25H102.21a4.3,4.3,0,0,0-4.29,4.29v17.17a4.3,4.3,0,0,0,4.29,4.3h17.18a4.3,4.3,0,0,0,4.29-4.3V167.55A4.3,4.3,0,0,0,119.39,163.26Z"/><path class="cls-7" d="M104.92,168.85h7.3a5.2,5.2,0,0,1,3.24.93,3.77,3.77,0,0,1,.67,4.74,3.61,3.61,0,0,1-1.59,1.26v0a3.32,3.32,0,0,1,2.1,1.31,4.37,4.37,0,0,1,.72,2.56,4.29,4.29,0,0,1-.32,1.65,3.3,3.3,0,0,1-1,1.33,4.89,4.89,0,0,1-1.72.88,8.49,8.49,0,0,1-2.51.33h-6.9Zm2.63,6.3h4.29a2.35,2.35,0,0,0,1.58-.54,1.93,1.93,0,0,0,.63-1.55,2,2,0,0,0-.57-1.6,2.51,2.51,0,0,0-1.64-.46h-4.29Zm0,6.59h4.65a2.59,2.59,0,0,0,1.86-.63,2.3,2.3,0,0,0,.67-1.76,2.17,2.17,0,0,0-.67-1.71,2.62,2.62,0,0,0-1.86-.6h-4.65Z"/><path class="cls-7" d="M83.73,214a7.92,7.92,0,0,1,6.91,4.06l4.22-2.43a12.81,12.81,0,1,0,0,12.71l-4.19-2.46A7.95,7.95,0,1,1,83.73,214Z"/><path class="cls-7" d="M295.18,273.21l-11.47-18.95a2.31,2.31,0,0,0-3.17-.78l-3.94,2.38,3,5a2.75,2.75,0,0,1,2.54,4.23l2.91,4.81a2.75,2.75,0,1,1-2,1.11l-2.72-4.49L278.06,276a2.75,2.75,0,0,1-.34,4.45,2.78,2.78,0,0,1-2.94-4.72,3,3,0,0,1,.93-.39l2.35-9.56a3,3,0,0,1-.64-.78,2.73,2.73,0,0,1,.18-3.05l-3-4.91-13,7.87a2.31,2.31,0,0,0-.78,3.17L272.37,287a2.31,2.31,0,0,0,3.17.78l18.86-11.42a2.31,2.31,0,0,0,.78-3.17Z"/><path class="cls-7" d="M180.93,209l2.39,26.07L194.05,238l10.76-2.88,2.4-26.07Zm21.3,6.17-.15,1.67-.06.76H189.43l.3,3.26h12l-.08.81-.78,8.4-.05.53-6.74,1.8h0l-6.74-1.72-.45-4.94h3.3l.23,2.54,3.66.95h0v-.12l3.67-.91.38-4.08h-11.4l-.81-8.87-.08-.9h16.48Z"/><path class="cls-7" d="M271.2,87.13s-1.34.79,1,1.05a20,20,0,0,0,7.31-.31,12.62,12.62,0,0,0,1.94.95c-6.91,3-15.63-.17-10.21-1.69m-.84-3.86s-1.51,1.12.8,1.36a28.57,28.57,0,0,0,9.42-.45,4.22,4.22,0,0,0,1.46.88c-8.35,2.44-17.66.2-11.68-1.79"/><path class="cls-7" d="M277.47,76.72c1.71,2-.44,3.72-.44,3.72s4.32-2.23,2.33-5c-1.85-2.61-3.27-3.9,4.42-8.36,0,0-12.07,3-6.31,9.66"/><path class="cls-7" d="M286.61,90s1,.82-1.1,1.46c-4,1.21-16.59,1.57-20.09,0-1.26-.55,1.1-1.31,1.84-1.47a4.8,4.8,0,0,1,1.22-.14c-1.4-1-9.05,1.94-3.89,2.78,14.08,2.28,25.67-1,22-2.68M271.85,79.27s-6.41,1.52-2.27,2.08a47.93,47.93,0,0,0,8.48-.1c2.66-.22,5.32-.69,5.32-.69a11.57,11.57,0,0,0-1.61.86c-6.51,1.71-19.09.91-15.47-.84a12.1,12.1,0,0,1,5.55-1.31m11.51,6.43c6.61-3.44,3.55-6.75,1.42-6.3a5.31,5.31,0,0,0-.76.2,1.24,1.24,0,0,1,.57-.43c4.22-1.49,7.47,4.38-1.37,6.7a.74.74,0,0,0,.14-.17"/><path class="cls-7" d="M279.36,59.85s3.67,3.67-3.47,9.31c-5.73,4.52-1.31,7.1,0,10-3.35-3-5.8-5.68-4.16-8.15,2.42-3.63,9.11-5.39,7.63-11.21"/><path class="cls-7" d="M272.5,95c6.36.41,16.11-.23,16.34-3.23,0,0-.44,1.14-5.25,2a52.4,52.4,0,0,1-16.08.25s.82.67,5,.94"/><path class="cls-8" d="M208.16,325.79l-.14.35c-2.27,4.43-6.3,7.14-12,7.26a16.79,16.79,0,0,1-6.92-1.38,17.85,17.85,0,0,1-8.29-7.84c-2.38-4.6-2.81-11,2.13-15.79.08,0-.6,1-.52,1l-.14.44c-3.56,11.15,7.41,20.7,18.08,19.61a14,14,0,0,0,7.84-3.69"/><path class="cls-8" d="M201.7,321.18a10.19,10.19,0,0,0,7.15-3c-1.45,3.68-5.66,6.05-11.3,5.3-4.72-.63-9.21-5.38-9.68-10.14-.34-3.47.87-5.54,2.86-8.05a8.41,8.41,0,0,0-1,3c-.76,7.5,6,12.87,12,12.91"/><path class="cls-8" d="M208.58,311.87a8.37,8.37,0,0,1-3.88,3,7.38,7.38,0,0,1-8.3-3.36,9.2,9.2,0,0,1-.66-1.5c-.55-1.86-.3-4.67,1.33-6.12a7.63,7.63,0,0,0-.3,4,8.55,8.55,0,0,0,1.11,2.43,8.61,8.61,0,0,0,3.81,2.85c1.06.31,3.29,1.14,6.89-1.32"/><path class="cls-7" d="M157.79,38.18a11,11,0,0,0-4.43,1.32c-.33.19-.89.28-.87.73.21.16.28.46.48.69a5.61,5.61,0,0,0,1.42,1.24c.55.31,1.09.61,1.65.86,1,.43,2.07.6,3,1,.56.25,1.14.6,1.7.88.28.14.49.42.84.49v-.07c-.2-.18-.29-.48-.49-.69s-.53-.37-.8-.57a10.9,10.9,0,0,0-2.77-2c-.82-.4-2.56-.86-3-1.68l-.05,0a9.78,9.78,0,0,0,1.55-.61c.77-.33,1.5-.39,2.28-.72.36-.14.72-.32,1.08-.49l0-.21c-.49-.36-.87-.87-1.37-1.2a30.36,30.36,0,0,0-4.28-2.31c-.79-.36-1.77-.53-2.59-.81-.3-.1-.78-.1-1-.31A9.6,9.6,0,0,1,149,32c-.87-1.19-1.73-2.51-2.51-3.78a23.36,23.36,0,0,0-1.58-2.49,23.78,23.78,0,0,0-10.31-7.41,11.71,11.71,0,0,0-3.13-.52l-1.77.16a8.16,8.16,0,0,1-1.19-.66c-1.45-.64-5.15-2-5.78.59-.41,1.61,1.37,2.87,2,3.57a10.76,10.76,0,0,1,1.45,1.57c.22.37.33.79.56,1.18a27.52,27.52,0,0,0,1.67,3,12.34,12.34,0,0,0,1.07,1.32c.23.23.57.29.7.7a6.68,6.68,0,0,0-.28,1.83,10.39,10.39,0,0,0,1.83,7.75c.46.53,1.53,1.68,2.65,1s.56-1.87.69-3.08c0-.3,0-.47.07-.68v0c.42.61.84,1.19,1.24,1.8a13.53,13.53,0,0,0,3.49,2.69c.62.33,1.17,1,1.91,1.15v-.07h0a2.59,2.59,0,0,0-.61-.38,12.06,12.06,0,0,1-1.42-1.23,30.36,30.36,0,0,1-3.24-3.86c-.48-.67-.92-1.42-1.33-2.1-.18-.26-.24-.68-.49-.78a8.22,8.22,0,0,0-.89,1.75,13.33,13.33,0,0,0-.14,3.62c-.09,0-.05,0-.09.06-.77-.08-1.14-.81-1.52-1.42a10.22,10.22,0,0,1-1.12-6.21c.09-.51.57-2.15.22-2.58s-.71-.61-1-.92A9.85,9.85,0,0,1,129,26.26c-.75-1.23-1.24-2.64-2-3.86a12.76,12.76,0,0,0-1.43-1.62A11.54,11.54,0,0,1,124,19.14c-.16-.23-.38-.63-.24-.94a.38.38,0,0,1,.29-.35c.26-.3,1.17-.1,1.5,0a12.67,12.67,0,0,1,2.48.83,4.26,4.26,0,0,0,1.21.64l.49-.07c.78.05,1.6-.19,2.33-.08a14.55,14.55,0,0,1,3.6,1.12,21,21,0,0,1,8.45,6.91c.36.5.55,1,.89,1.5.66,1.07,1.43,2.15,2.09,3.2a15.82,15.82,0,0,0,2.11,2.88c.42.44,1.86.49,2.53.66.5.14,1.25.22,1.71.41.86.38,1.74.82,2.56,1.25.42.23,1.67.64,1.81,1.09Z"/><path class="cls-7" d="M131,21.38a3.81,3.81,0,0,0-.94.26v.05h.05a7.93,7.93,0,0,0,.89.85c.24.34.46.69.7,1l0-.05a1.35,1.35,0,0,0,.32-1.24c-.17-.15-.21-.31-.35-.45s-.5-.29-.71-.45Z"/><path class="cls-7" d="M165.45,157.07a3,3,0,0,1,3,0l13.63,7.7a2.79,2.79,0,0,1,1.42,2.41v15.45A2.82,2.82,0,0,1,182,185.1l-13.59,7.66a3,3,0,0,1-3-.08l-4.08-2.36a2.47,2.47,0,0,1-.79-.56c.18-.24.49-.27.74-.37a9.8,9.8,0,0,0,1.61-.75.36.36,0,0,1,.41,0c1.17.66,2.32,1.35,3.48,2,.25.14.5-.05.71-.17q6.67-3.76,13.34-7.53a.42.42,0,0,0,.24-.43c0-5.1,0-10.19,0-15.29a.48.48,0,0,0-.29-.47l-13.54-7.63a.49.49,0,0,0-.53,0l-13.53,7.64a.47.47,0,0,0-.29.47v15.29a.44.44,0,0,0,.25.43l3.61,2a2.77,2.77,0,0,0,2.26.3,1.71,1.71,0,0,0,1.11-1.61c0-5.06,0-10.13,0-15.2a.38.38,0,0,1,.41-.39h1.74a.4.4,0,0,1,.38.46c0,5.1,0,10.2,0,15.29a3.89,3.89,0,0,1-1.81,3.51,5.59,5.59,0,0,1-5-.14c-1.33-.66-2.59-1.44-3.89-2.15a2.84,2.84,0,0,1-1.52-2.47V167.18a2.8,2.8,0,0,1,1.46-2.44Z"/><path class="cls-7" d="M169.4,167.77a10.69,10.69,0,0,1,5.86.89,4.45,4.45,0,0,1,2.17,3.84.43.43,0,0,1-.46.31c-.57,0-1.14,0-1.71,0a.44.44,0,0,1-.42-.43,2.58,2.58,0,0,0-1.25-1.8,7.44,7.44,0,0,0-3.44-.5,4.64,4.64,0,0,0-2.45.62,1.54,1.54,0,0,0-.52,1.74c.18.43.69.58,1.1.71,2.38.62,4.9.56,7.24,1.38a3.4,3.4,0,0,1,2.24,2,4.29,4.29,0,0,1-.72,4.07,5.76,5.76,0,0,1-3.06,1.65,14.91,14.91,0,0,1-4.62.19,7.19,7.19,0,0,1-4.06-1.53,4.24,4.24,0,0,1-1.37-3.36.38.38,0,0,1,.42-.34h1.73a.41.41,0,0,1,.41.4,2.62,2.62,0,0,0,1,1.84,7.36,7.36,0,0,0,4,.73,5.35,5.35,0,0,0,3.26-.8,1.8,1.8,0,0,0,.5-1.72c-.14-.51-.68-.75-1.13-.91-2.35-.74-4.9-.47-7.23-1.31a3.49,3.49,0,0,1-2.22-1.94,3.94,3.94,0,0,1,.79-4.12,6.34,6.34,0,0,1,4-1.59Z"/><path class="cls-7" d="M277.76,160.08c-8,0-7.51,3.47-7.51,3.47v3.6h7.64v1.08H267.23s-5.13-.58-5.13,7.5,4.48,7.79,4.48,7.79h2.66v-3.74s-.14-4.48,4.41-4.48h7.57s4.26.07,4.26-4.11v-6.92S286.13,160.08,277.76,160.08Zm-4.21,2.42a1.37,1.37,0,0,1,1.37,1.37h0a1.37,1.37,0,0,1-1.37,1.37h0a1.37,1.37,0,0,1-1.38-1.37h0a1.38,1.38,0,0,1,1.37-1.38Z"/><path class="cls-7" d="M278,191.46c8,0,7.51-3.47,7.51-3.47v-3.6h-7.64v-1.08h10.67s5.13.58,5.13-7.5-4.48-7.79-4.48-7.79H286.5v3.75s.15,4.47-4.4,4.47h-7.58s-4.25-.07-4.25,4.12v6.91s-.65,4.19,7.72,4.19ZM282.2,189a1.37,1.37,0,0,1-1.37-1.37h0a1.37,1.37,0,0,1,1.37-1.38h0a1.38,1.38,0,0,1,1.38,1.38h0A1.37,1.37,0,0,1,282.2,189Z"/><path class="cls-7" d="M232.54,265.13c-.37-.13-.75-.25-1.12-.36.06-.25.12-.51.17-.77.85-4.19.29-7.56-1.6-8.67s-4.8,0-7.81,2.7q-.45.39-.87.81c-.19-.18-.38-.37-.58-.54-3.15-2.84-6.31-4-8.2-2.92s-2.36,4.24-1.6,8.2c.08.39.17.78.26,1.17l-1.29.41c-3.69,1.31-6.05,3.35-6.05,5.48s2.53,4.39,6.38,5.72c.31.11.62.21.94.3q-.15.63-.27,1.26c-.73,3.9-.16,7,1.65,8.05s5,0,8.08-2.74c.24-.22.49-.44.73-.68.31.3.62.59.94.87,3,2.59,5.9,3.63,7.71,2.57s2.48-4.42,1.69-8.47c-.06-.31-.13-.62-.21-.94l.65-.21c4-1.34,6.6-3.51,6.6-5.73s-2.43-4.19-6.2-5.51Z"/><path d="M231.67,274.94l-.58.18a37.66,37.66,0,0,0-1.77-4.48,36.68,36.68,0,0,0,1.7-4.41c.35.1.7.21,1,.33,3.23,1.13,5.2,2.79,5.2,4.08s-2.12,3.14-5.58,4.3Zm-1.43,2.88a12.94,12.94,0,0,1,.17,4.66,3.12,3.12,0,0,1-1.15,2.2c-1.1.64-3.45-.19-6-2.41-.3-.25-.59-.52-.88-.81a35.61,35.61,0,0,0,2.92-3.76,34,34,0,0,0,4.73-.74c.07.29.13.58.19.86Zm-14.5,6.75a3.05,3.05,0,0,1-2.44.09c-1.1-.64-1.56-3.13-.94-6.46.08-.39.16-.78.26-1.17a34.84,34.84,0,0,0,4.7.69,37,37,0,0,0,3,3.75c-.22.21-.44.42-.67.62a12.55,12.55,0,0,1-3.91,2.48Zm-5-9.64a12.68,12.68,0,0,1-4.07-2.19,3.11,3.11,0,0,1-1.3-2.1c0-1.29,1.89-2.93,5-4.05.4-.14.8-.27,1.2-.38a37,37,0,0,0,1.7,4.46,37.71,37.71,0,0,0-1.72,4.53C211.28,275.12,211,275,210.71,274.93Zm1.69-11.64c-.66-3.4-.22-6,.87-6.6s3.75.29,6.47,2.74c.18.15.35.32.53.49a35.29,35.29,0,0,0-3,3.73,35.38,35.38,0,0,0-4.65.73c-.09-.36-.17-.73-.24-1.09Zm15,3.77c-.34-.6-.69-1.19-1.06-1.77a32.27,32.27,0,0,1,3.18.56,30.16,30.16,0,0,1-1.12,3c-.32-.62-.65-1.24-1-1.84ZM221.31,261a32.17,32.17,0,0,1,2.06,2.51,40.64,40.64,0,0,0-4.13,0,31.83,31.83,0,0,1,2.07-2.51Zm-6.18,6.07c-.34.6-.67,1.21-1,1.83-.43-1-.81-2.07-1.11-3.06,1-.23,2.06-.41,3.16-.55C215.83,265.87,215.48,266.46,215.13,267.07Zm1.11,9a31.36,31.36,0,0,1-3.22-.53c.31-1,.69-2.05,1.13-3.12q.48.93,1,1.83C215.49,274.89,215.86,275.5,216.24,276.1Zm5.11,4.28c-.7-.77-1.41-1.62-2.1-2.54.67,0,1.35,0,2.05,0s1.41,0,2.1-.05A31.21,31.21,0,0,1,221.35,280.38Zm7.12-8a30.4,30.4,0,0,1,1.17,3.12,32.23,32.23,0,0,1-3.25.56c.36-.59.72-1.19,1.07-1.8s.69-1.24,1-1.88Zm-2.3,1.12c-.53.93-1.09,1.85-1.68,2.74-1,.08-2.1.12-3.19.12s-2.15,0-3.16-.11c-.61-.89-1.18-1.8-1.71-2.74s-1-1.88-1.49-2.85c.46-1,1-1.92,1.49-2.85h0c.53-.93,1.09-1.84,1.69-2.73q1.56-.12,3.18-.12t3.18.12c.59.89,1.15,1.8,1.68,2.72s1,1.88,1.51,2.84c-.47,1-1,1.93-1.5,2.86Zm3.07-16.87c1.17.69,1.62,3.44.89,7.05,0,.24-.1.47-.16.71a33.87,33.87,0,0,0-4.66-.75,36,36,0,0,0-2.95-3.73c.26-.26.53-.51.8-.75,2.58-2.27,5-3.17,6.08-2.53Z"/><path class="cls-7" d="M221.3,267.48a3.16,3.16,0,1,1-3.12,3.16,3.13,3.13,0,0,1,3.12-3.16"/><g class="cls-9"><path class="cls-10" d="M92.1,219H86.66v.58c1.7,0,2,.36,2,2.52V226c0,2.16-.28,2.56-2,2.56-1.31-.19-2.19-.88-3.4-2.22l-1.4-1.52c1.88-.34,2.89-1.52,2.89-2.86,0-1.67-1.43-2.95-4.11-2.95H75.29v.58c1.7,0,2,.36,2,2.52V226c0,2.16-.28,2.56-2,2.56v.57h6v-.57c-1.7,0-2-.4-2-2.56V224.9h.51l3.38,4.22H92.1c4.35,0,6.23-2.31,6.23-5.07S96.45,219,92.1,219Zm-12.73,5v-4.05h1.24a2,2,0,0,1,0,4.05Zm12.82,4.22H92c-1.09,0-1.25-.27-1.25-1.67v-6.6h1.46c3.16,0,3.74,2.31,3.74,4.11S95.35,228.18,92.19,228.18Zm-33.83-3.1,2.1-6.2c.61-1.79.33-2.31-1.61-2.31V216h5.71v.61c-1.91,0-2.37.46-3.13,2.68L58,229.64h-.4l-3.1-9.51-3.16,9.51h-.39l-3.38-10.39c-.73-2.22-1.21-2.68-3-2.68V216h6.75v.61c-1.79,0-2.28.43-1.64,2.31l2,6.2L54.78,216h.57l3,9.12Zm10.34,4.44c-3.35,0-6.08-2.46-6.08-5.47s2.73-5.44,6.08-5.44,6.08,2.46,6.08,5.44S72,229.52,68.7,229.52Zm0-10c-2.8,0-3.77,2.52-3.77,4.5s1,4.5,3.77,4.5,3.8-2.5,3.8-4.5-1-4.5-3.8-4.5Z"/><path class="cls-11" d="M105.84,228.52v.6h-7v-.6c2,0,2.4-.52,2.4-3.56V220.1c0-3-.36-3.53-2.4-3.53V216h6.29c3.13,0,4.86,1.61,4.86,3.77s-1.73,3.74-4.86,3.74h-1.73V225c0,3,.36,3.56,2.4,3.56Zm-.67-11.46h-1.73v5.29h1.73a2.38,2.38,0,0,0,2.49-2.62A2.4,2.4,0,0,0,105.17,217.06Zm25.75,9.21-.16.54c-.27,1-.6,1.37-2.76,1.37h-.43c-1.58,0-1.85-.36-1.85-2.52v-1.4c2.37,0,2.55.21,2.55,1.79h.58v-4.52h-.58c0,1.58-.18,1.79-2.55,1.79v-3.41h1.67c2.16,0,2.49.37,2.77,1.37l.15.58h.48l-.21-2.86h-8.93v.58c1.7,0,2,.36,2,2.52V226c0,2-.23,2.47-1.57,2.55-1.28-.2-2.15-.89-3.35-2.21l-1.4-1.52c1.88-.34,2.89-1.52,2.89-2.86,0-1.67-1.43-2.95-4.11-2.95h-5.35v.58c1.71,0,2,.36,2,2.52V226c0,2.16-.27,2.56-2,2.56v.57h6v-.57c-1.7,0-2-.4-2-2.56V224.9h.51l3.38,4.22h12.49l.18-2.85ZM114.81,224v-4.05h1.24a2,2,0,0,1,0,4.05Zm22.28,5.56a4.54,4.54,0,0,1-2.74-1,2.24,2.24,0,0,0-.49,1h-.57v-4.2h.6a3.39,3.39,0,0,0,3.44,3.2,1.57,1.57,0,0,0,1.76-1.46c0-.79-.7-1.4-1.94-2l-1.74-.82a3.31,3.31,0,0,1-2.12-2.92,3,3,0,0,1,3.25-2.7,3.79,3.79,0,0,1,2.37.79,1.83,1.83,0,0,0,.4-.82h.57v3.58h-.64c-.21-1.42-1-2.61-2.61-2.61-.85,0-1.64.49-1.64,1.25s.64,1.21,2.1,1.88l1.67.82a3.17,3.17,0,0,1,2,2.74,3.43,3.43,0,0,1-3.7,3.25Zm9.36,0a4.54,4.54,0,0,1-2.74-1,2.15,2.15,0,0,0-.48,1h-.58v-4.2h.61a3.37,3.37,0,0,0,3.43,3.2,1.57,1.57,0,0,0,1.76-1.46c0-.79-.69-1.4-1.94-2l-1.73-.82a3.31,3.31,0,0,1-2.13-2.92,3,3,0,0,1,3.25-2.7,3.79,3.79,0,0,1,2.37.79,1.73,1.73,0,0,0,.4-.82h.57v3.58h-.63c-.22-1.42-1-2.61-2.62-2.61-.85,0-1.64.49-1.64,1.25s.64,1.21,2.1,1.88l1.67.82a3.18,3.18,0,0,1,2,2.74,3.44,3.44,0,0,1-3.71,3.25Z"/><path class="cls-7" d="M14.17,222.34a13.44,13.44,0,0,0,7.58,12.1l-6.42-17.58a13.28,13.28,0,0,0-1.16,5.48Zm22.53-.68A7.12,7.12,0,0,0,35.59,218a6.33,6.33,0,0,1-1.32-3.15,2.33,2.33,0,0,1,2.26-2.39h.17A13.45,13.45,0,0,0,16.38,215l.86,0c1.41,0,3.59-.17,3.59-.17a.55.55,0,0,1,.09,1.1s-.73.09-1.54.13l4.89,14.57,2.95-8.83L25.12,216c-.72,0-1.41-.13-1.41-.13a.55.55,0,0,1,.09-1.1s2.22.17,3.54.17,3.58-.17,3.58-.17a.55.55,0,0,1,.09,1.1s-.73.09-1.54.13l4.86,14.46L35.67,226a16,16,0,0,0,1-4.35Z"/><path class="cls-7" d="M27.85,223.51l-4,11.73a13.18,13.18,0,0,0,3.8.55,13.43,13.43,0,0,0,4.46-.76l-.09-.19Zm11.57-7.63a10,10,0,0,1,.09,1.39,12.67,12.67,0,0,1-1,4.82L34.38,234a13.46,13.46,0,0,0,5-18.09Z"/><path class="cls-7" d="M27.62,206.66A15.68,15.68,0,1,0,43.3,222.34,15.69,15.69,0,0,0,27.62,206.66Zm0,30.64a15,15,0,1,1,15-15,15,15,0,0,1-15,15Z"/></g><path class="cls-7" d="M262.91,116.17l-6.78-2.72L244.29,125l-7.12-5.42-2.71,1.36v14.23l2.69,1.35,7.12-5.42,11.86,11.51,6.78-2.71v-23.7Z"/><path d="M255.45,122.94,248.68,128l6.77,5.1V122.94Zm-17.61,2v6.09l3.38-3.07-3.39-3Z"/><path class="cls-7" d="M98.74,260.54c.05,0,.11.07.15.11.52.44,1,.89,1.55,1.31.85.67,1.7,1.34,2.56,2s1.74,1.29,2.62,1.92,1.69,1.21,2.56,1.79,1.8,1.13,2.75,1.72c-.58-.61-1.11-1.18-1.64-1.76s-.87-1-1.29-1.47c-.68-.8-1.37-1.61-2-2.43s-1.36-1.68-2-2.53c-.52-.67-1-1.36-1.51-2a.37.37,0,0,1-.08-.25l.13.08.86.8c1,.95,2.08,1.92,3.15,2.85.81.7,1.65,1.37,2.49,2.05s1.6,1.27,2.43,1.88,1.81,1.31,2.74,1.94c.75.52,1.53,1,2.3,1.48.27.16.55.31.85.47a14.48,14.48,0,0,0,.41-1.45,11.8,11.8,0,0,0,.23-3.25c-.05-.42,0-.85-.11-1.26-.15-.78-.31-1.55-.52-2.31a17.31,17.31,0,0,0-1.78-4c-.34-.6-.76-1.15-1.15-1.72a.44.44,0,0,1-.1-.24,5.13,5.13,0,0,1,.65.36c.75.53,1.5,1.06,2.22,1.62a18.8,18.8,0,0,1,3.41,3.55,17.91,17.91,0,0,1,2.79,5.18,18.76,18.76,0,0,1,.65,2.66,13.13,13.13,0,0,1,.16,2.5,12,12,0,0,1-.21,1.91c0,.26-.11.52-.15.79a.27.27,0,0,0,.07.21,12.68,12.68,0,0,1,1.86,3.2,12.52,12.52,0,0,1,.54,2,5.33,5.33,0,0,1,.14,1.25,6.49,6.49,0,0,1-.17,1.16c0,.08-.13.15-.19.22a.71.71,0,0,1-.22-.2,4.8,4.8,0,0,0-1.17-1.43,3.49,3.49,0,0,0-1.65-.8,5.13,5.13,0,0,0-2.49.18,13.48,13.48,0,0,0-1.55.71c-.73.38-1.47.71-2.24,1a12.27,12.27,0,0,1-2.87.63,12.87,12.87,0,0,1-4.2-.12,22.25,22.25,0,0,1-2.42-.54,24.29,24.29,0,0,1-2.6-1,16.67,16.67,0,0,1-2-1.05c-.74-.47-1.44-1-2.15-1.56a13.89,13.89,0,0,1-2.31-2.16c-.54-.64-1.06-1.29-1.59-1.95-.17-.2-.32-.42-.48-.63l.06-.06.15.08c.8.49,1.58,1,2.42,1.46a30.78,30.78,0,0,0,3,1.23,13.75,13.75,0,0,0,1.94.48,11.71,11.71,0,0,0,1.95.26,11,11,0,0,0,2.62-.1c.62-.14,1.27-.2,1.89-.34a13.11,13.11,0,0,0,3-1.34l-.61-.49c-.34-.26-.7-.52-1-.8-.88-.75-1.76-1.5-2.62-2.27s-1.45-1.38-2.15-2.09-1.57-1.64-2.33-2.47-1.36-1.53-2-2.31-1.59-1.8-2.36-2.73c-.47-.57-.88-1.17-1.31-1.76a.49.49,0,0,1,0-.11Z"/><path class="cls-8" d="M130.06,219.06a3,3,0,0,1,2.24.62,2.49,2.49,0,0,1,.27,2.13,3.6,3.6,0,0,1-1.18,2.24,4.32,4.32,0,0,1-2.66.67h-1.79l1.1-5.66Zm-7.18,11.4h3l.7-3.6h2.52a9.2,9.2,0,0,0,2.75-.35,5.31,5.31,0,0,0,2-1.18,6.1,6.1,0,0,0,1.2-1.5,6,6,0,0,0,.65-1.81,4.22,4.22,0,0,0-.7-3.75,4.71,4.71,0,0,0-3.73-1.34h-5.67Zm14.9-17.13h2.92l-.7,3.6h2.61a5.09,5.09,0,0,1,3.39.85,2.85,2.85,0,0,1,.56,2.78l-1.23,6.3h-3l1.17-6a1.62,1.62,0,0,0-.15-1.39,2,2,0,0,0-1.47-.37h-2.33l-1.51,7.75h-2.92Zm15.28,5.73a3,3,0,0,1,2.24.62,2.49,2.49,0,0,1,.27,2.13,3.6,3.6,0,0,1-1.18,2.24,4.31,4.31,0,0,1-2.65.67h-1.8l1.1-5.66Zm-7.18,11.4h3l.7-3.6h2.52a9.16,9.16,0,0,0,2.75-.35,5.23,5.23,0,0,0,2-1.18,5.66,5.66,0,0,0,1.2-1.5,5.75,5.75,0,0,0,.65-1.81,4.19,4.19,0,0,0-.7-3.75,4.69,4.69,0,0,0-3.73-1.34h-5.67l-2.63,13.53Z"/><path class="cls-7" d="M238.14,180.36c-.14-.45-.62-.6-1.42-.44-2.36.49-3.2.15-3.48,0a32.86,32.86,0,0,0,4.16-9.33,17.55,17.55,0,0,0,.61-4,4.38,4.38,0,0,0-.62-2.71,9.21,9.21,0,0,0-7.46-3.48,12.44,12.44,0,0,0-4.31.68,10.28,10.28,0,0,0-2.43-.31,7,7,0,0,0-4.16,1.14,18.65,18.65,0,0,0-3.38-.88c-2.73-.45-4.91-.11-6.46,1-1.85,1.31-2.71,3.66-2.54,7a43.56,43.56,0,0,0,1.69,7.83c1.32,4.32,2.75,6.77,4.26,7.27a1.9,1.9,0,0,0,.61.1,2.55,2.55,0,0,0,1.93-1.09c.85-1,1.74-2,2.65-3a4.34,4.34,0,0,0,1.91.52v0l-.34.41c-.46.59-.56.71-2,1-.43.09-1.55.32-1.57,1.11s1.33,1.22,1.49,1.26a6.42,6.42,0,0,0,1.54.19,4.47,4.47,0,0,0,3.08-1.15c0,3.07.1,6.09.47,7a3.52,3.52,0,0,0,3.37,2.6,5.37,5.37,0,0,0,1.13-.13c2.42-.52,3.48-1.59,3.89-4,.22-1.27.59-4.29.77-5.91a4.59,4.59,0,0,0,1.36.17,8.21,8.21,0,0,0,3.11-.59c.88-.41,2.46-1.41,2.17-2.28Zm-5.78-11a9.94,9.94,0,0,1-.14,1.36,10.61,10.61,0,0,0-.17,1.61,12.32,12.32,0,0,0,.12,1.81,6.39,6.39,0,0,1-.28,3.68,5,5,0,0,1-.26-.52,7.2,7.2,0,0,0-.44-.84c-.84-1.51-2.8-5-1.8-6.47.3-.43,1.06-.87,3-.63Zm-2.31-8.1a8.12,8.12,0,0,1,6.57,3.11c1.21,1.53-.12,8.52-4,14.55l-.11-.15-.05-.06a6.82,6.82,0,0,0,.62-4.69,10.81,10.81,0,0,1-.12-1.66,12.38,12.38,0,0,1,.16-1.49,8.73,8.73,0,0,0,.15-1.84.71.71,0,0,0,0-.26,10.31,10.31,0,0,0-2.36-4.43,10.64,10.64,0,0,0-3.74-2.82,12.26,12.26,0,0,1,2.81-.26Zm-15.66,21.11c-.77.93-1.3.75-1.48.69-1.15-.38-2.47-2.8-3.64-6.63a43.23,43.23,0,0,1-1.66-7.6c-.15-3,.57-5,2.14-6.13,2.54-1.81,6.72-.73,8.4-.18a.23.23,0,0,1-.07.07c-2.76,2.79-2.69,7.55-2.68,7.84a3.06,3.06,0,0,0,0,.49,20.78,20.78,0,0,1-.1,4,5,5,0,0,0,1.32,4.21l.35.32c-.48.51-1.5,1.63-2.6,2.94Zm3-3.93a4.1,4.1,0,0,1-1.07-3.41,20.53,20.53,0,0,0,.11-4.17c0-.12,0-.22,0-.3a5.26,5.26,0,0,1,3.6-1.05,1.45,1.45,0,0,1,1.13,1.26c.8,3.69.1,5.22-.45,6.46-.11.25-.22.49-.32.74l-.07.19a12.09,12.09,0,0,0-.45,1.37,3.43,3.43,0,0,1-2.47-1.09Zm.14,5a2,2,0,0,1-.64-.28,3.05,3.05,0,0,1,.68-.2c1.75-.36,2-.62,2.61-1.37.14-.17.29-.36.5-.6h0c.32-.35.46-.29.73-.19a1,1,0,0,1,.5.65.75.75,0,0,1-.06.61A3.84,3.84,0,0,1,217.48,183.46Zm9.15,8.51c-2.14.46-2.89-.63-3.39-1.88-.33-.8-.48-4.44-.37-8.45a.77.77,0,0,0,0-.15l-.06-.28a2,2,0,0,0-1.06-1.28,1.51,1.51,0,0,0-1-.12,12.36,12.36,0,0,1,.42-1.26l.07-.19c.08-.22.18-.45.29-.68.58-1.3,1.38-3.06.51-7.06a2.51,2.51,0,0,0-3-2.06,6.94,6.94,0,0,0-2.33.73l-.26.14c.12-1.51.59-4.33,2.36-6.11a5.82,5.82,0,0,1,4.4-1.65,9.35,9.35,0,0,1,7.13,3.41,10.82,10.82,0,0,1,1.95,3.34c-1.8-.18-3,.18-3.65,1.07-1.35,1.93.74,5.68,1.75,7.49.18.33.34.61.39.73a6.79,6.79,0,0,0,1.06,1.72,3.38,3.38,0,0,1,.26.33c-.55.16-1.53.52-1.44,2.34-.07.91-.58,5.19-.85,6.7-.34,2-1.07,2.73-3.14,3.18Zm8.93-10.22a6.91,6.91,0,0,1-2.38.5,2.9,2.9,0,0,1-1.6-.21c-.05-1.13.37-1.25.82-1.37l.2-.06.14.09c.79.52,2.19.58,4.18.17h0a5.4,5.4,0,0,1-1.38.88Z"/></g></g></g></svg>